<?xml version="1.0" encoding="UTF-8" standalone="no"?>
<!-- Created with Inkscape (http://www.inkscape.org/) -->

<svg
   xmlns:dc="http://purl.org/dc/elements/1.1/"
   xmlns:cc="http://creativecommons.org/ns#"
   xmlns:rdf="http://www.w3.org/1999/02/22-rdf-syntax-ns#"
   xmlns:svg="http://www.w3.org/2000/svg"
   xmlns="http://www.w3.org/2000/svg"
   xmlns:sodipodi="http://sodipodi.sourceforge.net/DTD/sodipodi-0.dtd"
   xmlns:inkscape="http://www.inkscape.org/namespaces/inkscape"
   sodipodi:docname="4.svg"
   inkscape:version="0.91 r13725"
   version="1.1"
   id="svg2"
   viewBox="0 0 1193 34.315488"
   height="9.6845932mm"
   width="336.6911mm">
  <sodipodi:namedview
     inkscape:window-maximized="1"
     inkscape:window-y="-8"
     inkscape:window-x="-8"
     inkscape:window-height="706"
     inkscape:window-width="1366"
     showgrid="false"
     inkscape:current-layer="svg2"
     inkscape:document-units="px"
     inkscape:cy="21.608381"
     inkscape:cx="599.49997"
     inkscape:zoom="0.175"
     inkscape:pageshadow="2"
     inkscape:pageopacity="0.0"
     borderopacity="1.0"
     bordercolor="#666666"
     pagecolor="#ffffff"
     id="base"
     fit-margin-top="0"
     fit-margin-left="0"
     fit-margin-right="0"
     fit-margin-bottom="0" />
  <defs
     id="defs4" />
  <metadata
     id="metadata7">
    <rdf:RDF>
      <cc:Work
         rdf:about="">
        <dc:format>image/svg+xml</dc:format>
        <dc:type
           rdf:resource="http://purl.org/dc/dcmitype/StillImage" />
        <dc:title></dc:title>
      </cc:Work>
    </rdf:RDF>
  </metadata>
  <g
     id="layer1"
     inkscape:groupmode="layer"
     inkscape:label="Layer 1"
     transform="translate(-1850.2233,-1103.6135)" />
  <g
     id="g3696"
     transform="translate(-0.5,12.707118)"
     inkscape:label="Hershey Text">
    <path
       id="path3698"
       transform="translate(12,0)"
       d="m -5,-5 -2,-1 -1,-2 0,-1 1,-2 2,-1 1,0 2,1 1,2 0,2 -1,4 -2,6 -2,4 -2,2 -2,0 -1,-1 0,-2 m 6,-6 9,-3 2,-1 3,-2 2,-2 1,-2 0,-1 -1,-1 -1,0 -2,2 L 6,-6 4,0 3,5 3,8 4,9 5,9 7,8 8,7 10,4"
       style="fill:none;stroke:#000000"
       inkscape:connector-curvature="0" />
    <path
       id="path3700"
       transform="translate(30,0)"
       d="m 0,0 -2,0 -2,1 -1,1 -1,2 0,2 1,2 2,1 2,0 L 1,8 2,7 3,5 3,3 2,1 0,0 -1,1 -1,3 0,5 2,6 5,6 7,5 8,4"
       style="fill:none;stroke:#000000"
       inkscape:connector-curvature="0" />
    <path
       id="path3702"
       transform="translate(47,0)"
       d="m -6,0 -2,2 -1,3 0,2 1,2 2,0 2,-1 2,-2 M 0,0 -2,6 -2,8 -1,9 1,9 3,8 5,6 6,3 6,0 m 0,0 1,4 1,1 2,0 2,-1"
       style="fill:none;stroke:#000000"
       inkscape:connector-curvature="0" />
    <path
       id="path3704"
       transform="translate(67,0)"
       d=""
       style="fill:none;stroke:#000000"
       inkscape:connector-curvature="0" />
    <path
       id="path3706"
       transform="translate(88,0)"
       d="m -13,4 2,-3 2,-1 1,1 0,1 -1,4 -1,3 m 1,-3 1,-2 2,-3 2,-1 2,0 1,1 0,1 -1,4 -1,3 M -2,6 -1,4 1,1 3,0 5,0 6,1 6,3 5,6 5,8 6,9 7,9 9,8 10,7 12,4"
       style="fill:none;stroke:#000000"
       inkscape:connector-curvature="0" />
    <path
       id="path3708"
       transform="translate(106,0)"
       d="M 3,3 2,1 0,0 -2,0 -4,1 -5,2 -6,4 -6,6 -5,8 -3,9 -1,9 1,8 2,6 4,0 3,5 3,8 4,9 5,9 7,8 8,7 10,4"
       style="fill:none;stroke:#000000"
       inkscape:connector-curvature="0" />
    <path
       id="path3710"
       transform="translate(124,0)"
       d="m -8,4 2,-3 2,-1 1,1 0,1 -1,4 -1,3 M -4,6 -3,4 -1,1 1,0 3,0 4,1 4,3 3,6 3,8 4,9 5,9 7,8 8,7 10,4"
       style="fill:none;stroke:#000000"
       inkscape:connector-curvature="0" />
    <path
       id="path3712"
       transform="translate(140,0)"
       d="m -6,4 2,-4 -2,6 0,2 1,1 2,0 2,-1 2,-2 2,-3 m 1,-3 -6,18 -1,2 -2,1 -1,-1 0,-2 1,-3 3,-3 L 1,10 3,9 6,7 9,4"
       style="fill:none;stroke:#000000"
       inkscape:connector-curvature="0" />
    <path
       id="path3714"
       transform="translate(157,0)"
       d=""
       style="fill:none;stroke:#000000"
       inkscape:connector-curvature="0" />
    <path
       id="path3716"
       transform="translate(172,0)"
       d="m -7,4 2,-3 1,-2 -1,4 -6,18 M -5,3 -4,1 -2,0 0,0 2,1 3,3 3,5 2,7 1,8 -1,9 M -5,8 -3,9 0,9 3,8 5,7 8,4"
       style="fill:none;stroke:#000000"
       inkscape:connector-curvature="0" />
    <path
       id="path3718"
       transform="translate(184,0)"
       d="M -3,7 -1,6 0,5 1,3 1,1 0,0 -1,0 -3,1 -4,3 -4,6 -3,8 -1,9 1,9 3,8 4,7 6,4"
       style="fill:none;stroke:#000000"
       inkscape:connector-curvature="0" />
    <path
       id="path3720"
       transform="translate(196,0)"
       d="m 0,0 -2,0 -2,1 -1,1 -1,2 0,2 1,2 2,1 2,0 L 1,8 2,7 3,5 3,3 2,1 0,0 -1,1 -1,3 0,5 2,6 5,6 7,5 8,4"
       style="fill:none;stroke:#000000"
       inkscape:connector-curvature="0" />
    <path
       id="path3722"
       transform="translate(211,0)"
       d="m -7,4 2,-3 1,-2 -1,4 -6,18 M -5,3 -4,1 -2,0 0,0 2,1 3,3 3,5 2,7 1,8 -1,9 M -5,8 -3,9 0,9 3,8 5,7 8,4"
       style="fill:none;stroke:#000000"
       inkscape:connector-curvature="0" />
    <path
       id="path3724"
       transform="translate(222,0)"
       d="m -3,4 2,-3 3,-5 1,-2 1,-3 0,-2 -1,-1 -2,1 -1,2 -1,4 -1,7 0,6 1,1 L 0,9 2,8 3,7 5,4"
       style="fill:none;stroke:#000000"
       inkscape:connector-curvature="0" />
    <path
       id="path3726"
       transform="translate(231,0)"
       d="M -3,7 -1,6 0,5 1,3 1,1 0,0 -1,0 -3,1 -4,3 -4,6 -3,8 -1,9 1,9 3,8 4,7 6,4"
       style="fill:none;stroke:#000000"
       inkscape:connector-curvature="0" />
    <path
       id="path3728"
       transform="translate(245,0)"
       d=""
       style="fill:none;stroke:#000000"
       inkscape:connector-curvature="0" />
    <path
       id="path3730"
       transform="translate(262,0)"
       d="M 5,4 3,2 1,-1 0,-3 l -1,-3 0,-3 1,-2 1,-1 2,0 1,1 1,2 0,3 -1,5 -2,5 -1,2 -2,2 -2,1 -2,0 -2,-1 -1,-2 0,-2 1,-1 2,0 2,1"
       style="fill:none;stroke:#000000"
       inkscape:connector-curvature="0" />
    <path
       id="path3732"
       transform="translate(278,0)"
       d=""
       style="fill:none;stroke:#000000"
       inkscape:connector-curvature="0" />
    <path
       id="path3734"
       transform="translate(291,0)"
       d="m -5,4 2,-3 3,-5 1,-2 1,-3 0,-2 -1,-1 -2,1 -1,2 -1,4 -1,6 -1,8 M -5,9 -4,6 -3,4 -1,1 1,0 3,0 4,1 4,3 3,6 3,8 4,9 5,9 7,8 8,7 10,4"
       style="fill:none;stroke:#000000"
       inkscape:connector-curvature="0" />
    <path
       id="path3736"
       transform="translate(307,0)"
       d="M 3,3 2,1 0,0 -2,0 -4,1 -5,2 -6,4 -6,6 -5,8 -3,9 -1,9 1,8 2,6 4,0 3,5 3,8 4,9 5,9 7,8 8,7 10,4"
       style="fill:none;stroke:#000000"
       inkscape:connector-curvature="0" />
    <path
       id="path3738"
       transform="translate(323,0)"
       d="M 3,3 2,1 0,0 -2,0 -4,1 -5,2 -6,4 -6,6 -5,8 -3,9 -1,9 1,8 2,6 8,-12 M 4,0 3,5 3,8 4,9 5,9 7,8 8,7 10,4"
       style="fill:none;stroke:#000000"
       inkscape:connector-curvature="0" />
    <path
       id="path3740"
       transform="translate(341,0)"
       d=""
       style="fill:none;stroke:#000000"
       inkscape:connector-curvature="0" />
    <path
       id="path3742"
       transform="translate(352,0)"
       d="M -3,4 -1,1 1,-3 M 4,-12 -2,6 -2,8 -1,9 1,9 3,8 4,7 6,4 m -8,-8 7,0"
       style="fill:none;stroke:#000000"
       inkscape:connector-curvature="0" />
    <path
       id="path3744"
       transform="translate(364,0)"
       d="m 0,0 -2,0 -2,1 -1,1 -1,2 0,2 1,2 2,1 2,0 L 1,8 2,7 3,5 3,3 2,1 0,0 -1,1 -1,3 0,5 2,6 5,6 7,5 8,4"
       style="fill:none;stroke:#000000"
       inkscape:connector-curvature="0" />
    <path
       id="path3746"
       transform="translate(380,0)"
       d=""
       style="fill:none;stroke:#000000"
       inkscape:connector-curvature="0" />
    <path
       id="path3748"
       transform="translate(394,0)"
       d="M 3,3 2,1 0,0 -2,0 -4,1 -5,2 -6,4 -6,6 -5,8 -3,9 -1,9 1,8 2,6 4,0 3,5 3,8 4,9 5,9 7,8 8,7 10,4"
       style="fill:none;stroke:#000000"
       inkscape:connector-curvature="0" />
    <path
       id="path3750"
       transform="translate(408,0)"
       d="m -4,4 2,-3 1,-2 0,2 2,3 1,2 0,2 -2,1 M -4,8 -2,9 2,9 4,8 5,7 7,4"
       style="fill:none;stroke:#000000"
       inkscape:connector-curvature="0" />
    <path
       id="path3752"
       transform="translate(420,0)"
       d="m -5,4 2,-3 3,-5 1,-2 1,-3 0,-2 -1,-1 -2,1 -1,2 -1,4 -1,6 -1,8 M -5,9 -4,6 -3,4 -1,1 1,0 3,0 4,1 4,3 2,4 -1,4 M -1,4 1,5 2,8 3,9 4,9 6,8 7,7 9,4"
       style="fill:none;stroke:#000000"
       inkscape:connector-curvature="0" />
    <path
       id="path3754"
       transform="translate(434,0)"
       d="m -2,9 -1,-1 1,-1 1,1 0,1 -1,2 -2,2"
       style="fill:none;stroke:#000000"
       inkscape:connector-curvature="0" />
    <path
       id="path3756"
       transform="translate(448,0)"
       d=""
       style="fill:none;stroke:#000000"
       inkscape:connector-curvature="0" />
    <path
       id="path3758"
       transform="translate(465,0)"
       d="M 5,4 3,2 1,-1 0,-3 l -1,-3 0,-3 1,-2 1,-1 2,0 1,1 1,2 0,3 -1,5 -2,5 -1,2 -2,2 -2,1 -2,0 -2,-1 -1,-2 0,-2 1,-1 2,0 2,1"
       style="fill:none;stroke:#000000"
       inkscape:connector-curvature="0" />
    <path
       id="path3760"
       transform="translate(481,0)"
       d=""
       style="fill:none;stroke:#000000"
       inkscape:connector-curvature="0" />
    <path
       id="path3762"
       transform="translate(492,0)"
       d="M -3,4 -1,1 1,-3 M 4,-12 -2,6 -2,8 -1,9 1,9 3,8 4,7 6,4 m -8,-8 7,0"
       style="fill:none;stroke:#000000"
       inkscape:connector-curvature="0" />
    <path
       id="path3764"
       transform="translate(507,0)"
       d="m -6,0 -2,2 -1,3 0,2 1,2 2,0 2,-1 2,-2 M 0,0 -2,6 -2,8 -1,9 1,9 3,8 5,6 6,3 6,0 m 0,0 1,4 1,1 2,0 2,-1"
       style="fill:none;stroke:#000000"
       inkscape:connector-curvature="0" />
    <path
       id="path3766"
       transform="translate(523,0)"
       d="M -3,7 -1,6 0,5 1,3 1,1 0,0 -1,0 -3,1 -4,3 -4,6 -3,8 -1,9 1,9 3,8 4,7 6,4"
       style="fill:none;stroke:#000000"
       inkscape:connector-curvature="0" />
    <path
       id="path3768"
       transform="translate(533,0)"
       d="M -3,7 -1,6 0,5 1,3 1,1 0,0 -1,0 -3,1 -4,3 -4,6 -3,8 -1,9 1,9 3,8 4,7 6,4"
       style="fill:none;stroke:#000000"
       inkscape:connector-curvature="0" />
    <path
       id="path3770"
       transform="translate(542,0)"
       d="M -3,4 -1,1 1,-3 M 4,-12 -2,6 -2,8 -1,9 1,9 3,8 4,7 6,4 m -8,-8 7,0"
       style="fill:none;stroke:#000000"
       inkscape:connector-curvature="0" />
    <path
       id="path3772"
       transform="translate(552,0)"
       d="M -3,7 -1,6 0,5 1,3 1,1 0,0 -1,0 -3,1 -4,3 -4,6 -3,8 -1,9 1,9 3,8 4,7 6,4"
       style="fill:none;stroke:#000000"
       inkscape:connector-curvature="0" />
    <path
       id="path3774"
       transform="translate(564,0)"
       d="M 3,3 2,1 0,0 -2,0 -4,1 -5,2 -6,4 -6,6 -5,8 -3,9 -1,9 1,8 2,6 8,-12 M 4,0 3,5 3,8 4,9 5,9 7,8 8,7 10,4"
       style="fill:none;stroke:#000000"
       inkscape:connector-curvature="0" />
    <path
       id="path3776"
       transform="translate(582,0)"
       d=""
       style="fill:none;stroke:#000000"
       inkscape:connector-curvature="0" />
    <path
       id="path3778"
       transform="translate(593,0)"
       d="M -3,4 -1,1 1,-3 M 4,-12 -2,6 -2,8 -1,9 1,9 3,8 4,7 6,4 m -8,-8 7,0"
       style="fill:none;stroke:#000000"
       inkscape:connector-curvature="0" />
    <path
       id="path3780"
       transform="translate(605,0)"
       d="m 0,0 -2,0 -2,1 -1,1 -1,2 0,2 1,2 2,1 2,0 L 1,8 2,7 3,5 3,3 2,1 0,0 -1,1 -1,3 0,5 2,6 5,6 7,5 8,4"
       style="fill:none;stroke:#000000"
       inkscape:connector-curvature="0" />
    <path
       id="path3782"
       transform="translate(621,0)"
       d=""
       style="fill:none;stroke:#000000"
       inkscape:connector-curvature="0" />
    <path
       id="path3784"
       transform="translate(636,0)"
       d="m -7,4 2,-3 1,-2 -1,4 -6,18 M -5,3 -4,1 -2,0 0,0 2,1 3,3 3,5 2,7 1,8 -1,9 M -5,8 -3,9 0,9 3,8 5,7 8,4"
       style="fill:none;stroke:#000000"
       inkscape:connector-curvature="0" />
    <path
       id="path3786"
       transform="translate(648,0)"
       d="M -3,7 -1,6 0,5 1,3 1,1 0,0 -1,0 -3,1 -4,3 -4,6 -3,8 -1,9 1,9 3,8 4,7 6,4"
       style="fill:none;stroke:#000000"
       inkscape:connector-curvature="0" />
    <path
       id="path3788"
       transform="translate(660,0)"
       d="m 0,0 -2,0 -2,1 -1,1 -1,2 0,2 1,2 2,1 2,0 L 1,8 2,7 3,5 3,3 2,1 0,0 -1,1 -1,3 0,5 2,6 5,6 7,5 8,4"
       style="fill:none;stroke:#000000"
       inkscape:connector-curvature="0" />
    <path
       id="path3790"
       transform="translate(675,0)"
       d="m -7,4 2,-3 1,-2 -1,4 -6,18 M -5,3 -4,1 -2,0 0,0 2,1 3,3 3,5 2,7 1,8 -1,9 M -5,8 -3,9 0,9 3,8 5,7 8,4"
       style="fill:none;stroke:#000000"
       inkscape:connector-curvature="0" />
    <path
       id="path3792"
       transform="translate(686,0)"
       d="m -3,4 2,-3 3,-5 1,-2 1,-3 0,-2 -1,-1 -2,1 -1,2 -1,4 -1,7 0,6 1,1 L 0,9 2,8 3,7 5,4"
       style="fill:none;stroke:#000000"
       inkscape:connector-curvature="0" />
    <path
       id="path3794"
       transform="translate(695,0)"
       d="M -3,7 -1,6 0,5 1,3 1,1 0,0 -1,0 -3,1 -4,3 -4,6 -3,8 -1,9 1,9 3,8 4,7 6,4"
       style="fill:none;stroke:#000000"
       inkscape:connector-curvature="0" />
    <path
       id="path3796"
       transform="translate(709,0)"
       d=""
       style="fill:none;stroke:#000000"
       inkscape:connector-curvature="0" />
    <path
       id="path3798"
       transform="translate(726,0)"
       d="M 5,4 3,2 1,-1 0,-3 l -1,-3 0,-3 1,-2 1,-1 2,0 1,1 1,2 0,3 -1,5 -2,5 -1,2 -2,2 -2,1 -2,0 -2,-1 -1,-2 0,-2 1,-1 2,0 2,1"
       style="fill:none;stroke:#000000"
       inkscape:connector-curvature="0" />
    <path
       id="path3800"
       transform="translate(742,0)"
       d=""
       style="fill:none;stroke:#000000"
       inkscape:connector-curvature="0" />
    <path
       id="path3802"
       transform="translate(755,0)"
       d="M 2,2 2,1 1,0 -1,0 -3,1 -4,2 -5,4 -5,6 -4,8 -2,9 1,9 4,7 6,4"
       style="fill:none;stroke:#000000"
       inkscape:connector-curvature="0" />
    <path
       id="path3804"
       transform="translate(767,0)"
       d="m 0,0 -2,0 -2,1 -1,1 -1,2 0,2 1,2 2,1 2,0 L 1,8 2,7 3,5 3,3 2,1 0,0 -1,1 -1,3 0,5 2,6 5,6 7,5 8,4"
       style="fill:none;stroke:#000000"
       inkscape:connector-curvature="0" />
    <path
       id="path3806"
       transform="translate(781,0)"
       d="m -6,4 2,-4 -2,6 0,2 1,1 2,0 L -1,8 1,6 3,3 M 4,0 2,6 2,8 3,9 4,9 6,8 7,7 9,4"
       style="fill:none;stroke:#000000"
       inkscape:connector-curvature="0" />
    <path
       id="path3808"
       transform="translate(793,0)"
       d="m -3,4 2,-3 3,-5 1,-2 1,-3 0,-2 -1,-1 -2,1 -1,2 -1,4 -1,7 0,6 1,1 L 0,9 2,8 3,7 5,4"
       style="fill:none;stroke:#000000"
       inkscape:connector-curvature="0" />
    <path
       id="path3810"
       transform="translate(804,0)"
       d="M 3,3 2,1 0,0 -2,0 -4,1 -5,2 -6,4 -6,6 -5,8 -3,9 -1,9 1,8 2,6 8,-12 M 4,0 3,5 3,8 4,9 5,9 7,8 8,7 10,4"
       style="fill:none;stroke:#000000"
       inkscape:connector-curvature="0" />
    <path
       id="path3812"
       transform="translate(822,0)"
       d="m -8,4 2,-3 2,-1 1,1 0,1 -1,4 -1,3 M -4,6 -3,4 -1,1 1,0 3,0 4,1 4,3 3,6 3,8 4,9 5,9 7,8 8,7 10,4"
       style="fill:none;stroke:#000000"
       inkscape:connector-curvature="0" />
    <path
       id="path3814"
       transform="translate(837,0)"
       d="m 3,-10 -1,-1 1,-1 1,1 0,1 -1,2 -2,2"
       style="fill:none;stroke:#000000"
       inkscape:connector-curvature="0" />
    <path
       id="path3816"
       transform="translate(846,0)"
       d="M -3,4 -1,1 1,-3 M 4,-12 -2,6 -2,8 -1,9 1,9 3,8 4,7 6,4 m -8,-8 7,0"
       style="fill:none;stroke:#000000"
       inkscape:connector-curvature="0" />
    <path
       id="path3818"
       transform="translate(860,0)"
       d=""
       style="fill:none;stroke:#000000"
       inkscape:connector-curvature="0" />
    <path
       id="path3820"
       transform="translate(873,0)"
       d="m -5,4 2,-3 3,-5 1,-2 1,-3 0,-2 -1,-1 -2,1 -1,2 -1,4 -1,6 -1,8 M -5,9 -4,6 -3,4 -1,1 1,0 3,0 4,1 4,3 3,6 3,8 4,9 5,9 7,8 8,7 10,4"
       style="fill:none;stroke:#000000"
       inkscape:connector-curvature="0" />
    <path
       id="path3822"
       transform="translate(889,0)"
       d="M 3,3 2,1 0,0 -2,0 -4,1 -5,2 -6,4 -6,6 -5,8 -3,9 -1,9 1,8 2,6 4,0 3,5 3,8 4,9 5,9 7,8 8,7 10,4"
       style="fill:none;stroke:#000000"
       inkscape:connector-curvature="0" />
    <path
       id="path3824"
       transform="translate(905,0)"
       d="m -6,4 2,-4 -1,5 0,3 1,1 1,0 L 0,8 2,6 3,3 3,0 M 3,0 4,4 5,5 7,5 9,4"
       style="fill:none;stroke:#000000"
       inkscape:connector-curvature="0" />
    <path
       id="path3826"
       transform="translate(918,0)"
       d="M -3,7 -1,6 0,5 1,3 1,1 0,0 -1,0 -3,1 -4,3 -4,6 -3,8 -1,9 1,9 3,8 4,7 6,4"
       style="fill:none;stroke:#000000"
       inkscape:connector-curvature="0" />
    <path
       id="path3828"
       transform="translate(932,0)"
       d=""
       style="fill:none;stroke:#000000"
       inkscape:connector-curvature="0" />
    <path
       id="path3830"
       transform="translate(942,0)"
       d="m 1,-5 0,1 1,0 0,-1 -1,0 M -2,4 0,0 -2,6 -2,8 -1,9 0,9 2,8 3,7 5,4"
       style="fill:none;stroke:#000000"
       inkscape:connector-curvature="0" />
    <path
       id="path3832"
       transform="translate(960,0)"
       d="m -13,4 2,-3 2,-1 1,1 0,1 -1,4 -1,3 m 1,-3 1,-2 2,-3 2,-1 2,0 1,1 0,1 -1,4 -1,3 M -2,6 -1,4 1,1 3,0 5,0 6,1 6,3 5,6 5,8 6,9 7,9 9,8 10,7 12,4"
       style="fill:none;stroke:#000000"
       inkscape:connector-curvature="0" />
    <path
       id="path3834"
       transform="translate(978,0)"
       d="M 3,3 2,1 0,0 -2,0 -4,1 -5,2 -6,4 -6,6 -5,8 -3,9 -1,9 1,8 2,6 4,0 3,5 3,8 4,9 5,9 7,8 8,7 10,4"
       style="fill:none;stroke:#000000"
       inkscape:connector-curvature="0" />
    <path
       id="path3836"
       transform="translate(994,0)"
       d="M 3,3 2,1 0,0 l -2,0 -2,1 -1,1 -1,2 0,2 1,2 2,1 2,0 2,-1 1,-1 m 2,-7 -2,7 -4,11 -1,2 -2,1 -1,-1 0,-2 1,-3 3,-3 L 1,10 3,9 6,7 9,4"
       style="fill:none;stroke:#000000"
       inkscape:connector-curvature="0" />
    <path
       id="path3838"
       transform="translate(1005,0)"
       d="m 1,-5 0,1 1,0 0,-1 -1,0 M -2,4 0,0 -2,6 -2,8 -1,9 0,9 2,8 3,7 5,4"
       style="fill:none;stroke:#000000"
       inkscape:connector-curvature="0" />
    <path
       id="path3840"
       transform="translate(1018,0)"
       d="m -8,4 2,-3 2,-1 1,1 0,1 -1,4 -1,3 M -4,6 -3,4 -1,1 1,0 3,0 4,1 4,3 3,6 3,8 4,9 5,9 7,8 8,7 10,4"
       style="fill:none;stroke:#000000"
       inkscape:connector-curvature="0" />
    <path
       id="path3842"
       transform="translate(1032,0)"
       d="M -3,7 -1,6 0,5 1,3 1,1 0,0 -1,0 -3,1 -4,3 -4,6 -3,8 -1,9 1,9 3,8 4,7 6,4"
       style="fill:none;stroke:#000000"
       inkscape:connector-curvature="0" />
    <path
       id="path3844"
       transform="translate(1044,0)"
       d="M 3,3 2,1 0,0 -2,0 -4,1 -5,2 -6,4 -6,6 -5,8 -3,9 -1,9 1,8 2,6 8,-12 M 4,0 3,5 3,8 4,9 5,9 7,8 8,7 10,4"
       style="fill:none;stroke:#000000"
       inkscape:connector-curvature="0" />
    <path
       id="path3846"
       transform="translate(1062,0)"
       d=""
       style="fill:none;stroke:#000000"
       inkscape:connector-curvature="0" />
    <path
       id="path3848"
       transform="translate(1079,0)"
       d="M 5,4 3,2 1,-1 0,-3 l -1,-3 0,-3 1,-2 1,-1 2,0 1,1 1,2 0,3 -1,5 -2,5 -1,2 -2,2 -2,1 -2,0 -2,-1 -1,-2 0,-2 1,-1 2,0 2,1"
       style="fill:none;stroke:#000000"
       inkscape:connector-curvature="0" />
    <path
       id="path3850"
       transform="translate(1092,0)"
       d="m 3,-10 -1,-1 1,-1 1,1 0,1 -1,2 -2,2"
       style="fill:none;stroke:#000000"
       inkscape:connector-curvature="0" />
    <path
       id="path3852"
       transform="translate(1104,0)"
       d="M 3,3 2,1 0,0 -2,0 -4,1 -5,2 -6,4 -6,6 -5,8 -3,9 -1,9 1,8 2,6 8,-12 M 4,0 3,5 3,8 4,9 5,9 7,8 8,7 10,4"
       style="fill:none;stroke:#000000"
       inkscape:connector-curvature="0" />
    <path
       id="path3854"
       transform="translate(1122,0)"
       d=""
       style="fill:none;stroke:#000000"
       inkscape:connector-curvature="0" />
    <path
       id="path3856"
       transform="translate(1133,0)"
       d="M -3,4 -1,1 1,-3 M 4,-12 -2,6 -2,8 -1,9 1,9 3,8 4,7 6,4 m -8,-8 7,0"
       style="fill:none;stroke:#000000"
       inkscape:connector-curvature="0" />
    <path
       id="path3858"
       transform="translate(1148,0)"
       d="m -6,0 -2,2 -1,3 0,2 1,2 2,0 2,-1 2,-2 M 0,0 -2,6 -2,8 -1,9 1,9 3,8 5,6 6,3 6,0 m 0,0 1,4 1,1 2,0 2,-1"
       style="fill:none;stroke:#000000"
       inkscape:connector-curvature="0" />
    <path
       id="path3860"
       transform="translate(1164,0)"
       d="M -3,7 -1,6 0,5 1,3 1,1 0,0 -1,0 -3,1 -4,3 -4,6 -3,8 -1,9 1,9 3,8 4,7 6,4"
       style="fill:none;stroke:#000000"
       inkscape:connector-curvature="0" />
    <path
       id="path3862"
       transform="translate(1174,0)"
       d="M -3,7 -1,6 0,5 1,3 1,1 0,0 -1,0 -3,1 -4,3 -4,6 -3,8 -1,9 1,9 3,8 4,7 6,4"
       style="fill:none;stroke:#000000"
       inkscape:connector-curvature="0" />
    <path
       id="path3864"
       transform="translate(1183,0)"
       d="M -3,4 -1,1 1,-3 M 4,-12 -2,6 -2,8 -1,9 1,9 3,8 4,7 6,4 m -8,-8 7,0"
       style="fill:none;stroke:#000000"
       inkscape:connector-curvature="0" />
    <path
       id="path3866"
       transform="translate(1194,0)"
       d="m -2,9 -1,-1 1,-1 1,1 0,1 -1,2 -2,2"
       style="fill:none;stroke:#000000"
       inkscape:connector-curvature="0" />
  </g>
</svg>
