<?xml version="1.0" encoding="UTF-8" standalone="no"?>
<!-- Created with Inkscape (http://www.inkscape.org/) -->

<svg
   xmlns:dc="http://purl.org/dc/elements/1.1/"
   xmlns:cc="http://creativecommons.org/ns#"
   xmlns:rdf="http://www.w3.org/1999/02/22-rdf-syntax-ns#"
   xmlns:svg="http://www.w3.org/2000/svg"
   xmlns="http://www.w3.org/2000/svg"
   xmlns:sodipodi="http://sodipodi.sourceforge.net/DTD/sodipodi-0.dtd"
   xmlns:inkscape="http://www.inkscape.org/namespaces/inkscape"
   width="323.10583mm"
   height="9.6567307mm"
   viewBox="0 0 1144.8632 34.216762"
   id="svg2"
   version="1.1"
   inkscape:version="0.91 r13725"
   sodipodi:docname="4.svg">
  <sodipodi:namedview
     id="base"
     pagecolor="#ffffff"
     bordercolor="#666666"
     borderopacity="1.0"
     inkscape:pageopacity="0.0"
     inkscape:pageshadow="2"
     inkscape:zoom="0.175"
     inkscape:cx="580.44721"
     inkscape:cy="21.60838"
     inkscape:document-units="px"
     inkscape:current-layer="svg2"
     showgrid="false"
     inkscape:window-width="1366"
     inkscape:window-height="706"
     inkscape:window-x="-8"
     inkscape:window-y="-8"
     inkscape:window-maximized="1"
     fit-margin-top="0"
     fit-margin-left="0"
     fit-margin-right="0"
     fit-margin-bottom="0" />
  <defs
     id="defs4" />
  <metadata
     id="metadata7">
    <rdf:RDF>
      <cc:Work
         rdf:about="">
        <dc:format>image/svg+xml</dc:format>
        <dc:type
           rdf:resource="http://purl.org/dc/dcmitype/StillImage" />
        <dc:title></dc:title>
      </cc:Work>
    </rdf:RDF>
  </metadata>
  <g
     id="layer1"
     inkscape:groupmode="layer"
     inkscape:label="Layer 1"
     transform="translate(-19.052756,-1018.1454)" />
  <g
     id="g3962"
     transform="translate(0.4472136,12.608357)"
     inkscape:label="Hershey Text">
    <path
       id="path3964"
       transform="translate(6,0)"
       d="m -6,4 2,-4 -1,5 0,3 1,1 1,0 L 0,8 2,6 3,3 3,0 M 3,0 4,4 5,5 7,5 9,4"
       style="fill:none;stroke:#000000"
       inkscape:connector-curvature="0" />
    <path
       id="path3966"
       transform="translate(19,0)"
       d="M -3,7 -1,6 0,5 1,3 1,1 0,0 -1,0 -3,1 -4,3 -4,6 -3,8 -1,9 1,9 3,8 4,7 6,4"
       style="fill:none;stroke:#000000"
       inkscape:connector-curvature="0" />
    <path
       id="path3968"
       transform="translate(30,0)"
       d="M -5,4 -3,1 -2,-1 -2,1 1,1 2,2 2,4 1,7 1,8 2,9 3,9 5,8 6,7 8,4"
       style="fill:none;stroke:#000000"
       inkscape:connector-curvature="0" />
    <path
       id="path3970"
       transform="translate(44,0)"
       d="m -6,4 2,-4 -2,6 0,2 1,1 2,0 2,-1 2,-2 2,-3 m 1,-3 -6,18 -1,2 -2,1 -1,-1 0,-2 1,-3 3,-3 L 1,10 3,9 6,7 9,4"
       style="fill:none;stroke:#000000"
       inkscape:connector-curvature="0" />
    <path
       id="path3972"
       transform="translate(61,0)"
       d=""
       style="fill:none;stroke:#000000"
       inkscape:connector-curvature="0" />
    <path
       id="path3974"
       transform="translate(74,0)"
       d="m -5,4 2,-3 3,-5 1,-2 1,-3 0,-2 -1,-1 -2,1 -1,2 -1,4 -1,6 -1,8 M -5,9 -4,6 -3,4 -1,1 1,0 3,0 4,1 4,3 2,4 -1,4 M -1,4 1,5 2,8 3,9 4,9 6,8 7,7 9,4"
       style="fill:none;stroke:#000000"
       inkscape:connector-curvature="0" />
    <path
       id="path3976"
       transform="translate(91,0)"
       d="m -8,4 2,-3 2,-1 1,1 0,1 -1,4 -1,3 M -4,6 -3,4 -1,1 1,0 3,0 4,1 4,3 3,6 3,8 4,9 5,9 7,8 8,7 10,4"
       style="fill:none;stroke:#000000"
       inkscape:connector-curvature="0" />
    <path
       id="path3978"
       transform="translate(107,0)"
       d="m 0,0 -2,0 -2,1 -1,1 -1,2 0,2 1,2 2,1 2,0 L 1,8 2,7 3,5 3,3 2,1 0,0 -1,1 -1,3 0,5 2,6 5,6 7,5 8,4"
       style="fill:none;stroke:#000000"
       inkscape:connector-curvature="0" />
    <path
       id="path3980"
       transform="translate(124,0)"
       d="m -6,0 -2,2 -1,3 0,2 1,2 2,0 2,-1 2,-2 M 0,0 -2,6 -2,8 -1,9 1,9 3,8 5,6 6,3 6,0 m 0,0 1,4 1,1 2,0 2,-1"
       style="fill:none;stroke:#000000"
       inkscape:connector-curvature="0" />
    <path
       id="path3982"
       transform="translate(144,0)"
       d="m -8,4 2,-3 2,-1 1,1 0,1 -1,4 -1,3 M -4,6 -3,4 -1,1 1,0 3,0 4,1 4,3 3,6 3,8 4,9 5,9 7,8 8,7 10,4"
       style="fill:none;stroke:#000000"
       inkscape:connector-curvature="0" />
    <path
       id="path3984"
       transform="translate(162,0)"
       d=""
       style="fill:none;stroke:#000000"
       inkscape:connector-curvature="0" />
    <path
       id="path3986"
       transform="translate(172,0)"
       d="m 1,-5 0,1 1,0 0,-1 -1,0 M -2,4 0,0 -2,6 -2,8 -1,9 0,9 2,8 3,7 5,4"
       style="fill:none;stroke:#000000"
       inkscape:connector-curvature="0" />
    <path
       id="path3988"
       transform="translate(185,0)"
       d="m -8,4 2,-3 2,-1 1,1 0,1 -1,4 -1,3 M -4,6 -3,4 -1,1 1,0 3,0 4,1 4,3 3,6 3,8 4,9 5,9 7,8 8,7 10,4"
       style="fill:none;stroke:#000000"
       inkscape:connector-curvature="0" />
    <path
       id="path3990"
       transform="translate(203,0)"
       d=""
       style="fill:none;stroke:#000000"
       inkscape:connector-curvature="0" />
    <path
       id="path3992"
       transform="translate(214,0)"
       d="M -3,4 -1,1 1,-3 M 4,-12 -2,6 -2,8 -1,9 1,9 3,8 4,7 6,4 m -8,-8 7,0"
       style="fill:none;stroke:#000000"
       inkscape:connector-curvature="0" />
    <path
       id="path3994"
       transform="translate(225,0)"
       d="m -5,4 2,-3 3,-5 1,-2 1,-3 0,-2 -1,-1 -2,1 -1,2 -1,4 -1,6 -1,8 M -5,9 -4,6 -3,4 -1,1 1,0 3,0 4,1 4,3 3,6 3,8 4,9 5,9 7,8 8,7 10,4"
       style="fill:none;stroke:#000000"
       inkscape:connector-curvature="0" />
    <path
       id="path3996"
       transform="translate(239,0)"
       d="M -3,7 -1,6 0,5 1,3 1,1 0,0 -1,0 -3,1 -4,3 -4,6 -3,8 -1,9 1,9 3,8 4,7 6,4"
       style="fill:none;stroke:#000000"
       inkscape:connector-curvature="0" />
    <path
       id="path3998"
       transform="translate(253,0)"
       d=""
       style="fill:none;stroke:#000000"
       inkscape:connector-curvature="0" />
    <path
       id="path4000"
       transform="translate(265,0)"
       d="m -4,4 2,-3 1,-2 0,2 2,3 1,2 0,2 -2,1 M -4,8 -2,9 2,9 4,8 5,7 7,4"
       style="fill:none;stroke:#000000"
       inkscape:connector-curvature="0" />
    <path
       id="path4002"
       transform="translate(278,0)"
       d="m 0,0 -2,0 -2,1 -1,1 -1,2 0,2 1,2 2,1 2,0 L 1,8 2,7 3,5 3,3 2,1 0,0 -1,1 -1,3 0,5 2,6 5,6 7,5 8,4"
       style="fill:none;stroke:#000000"
       inkscape:connector-curvature="0" />
    <path
       id="path4004"
       transform="translate(289,0)"
       d="m -3,4 4,-5 2,-3 1,-2 1,-3 0,-2 -1,-1 -2,1 -1,2 -2,8 -3,9 -3,7 -1,3 0,2 1,1 2,-1 1,-3 1,-9 1,1 L 0,9 2,8 3,7 5,4"
       style="fill:none;stroke:#000000"
       inkscape:connector-curvature="0" />
    <path
       id="path4006"
       transform="translate(297,0)"
       d="M -3,4 -1,1 1,-3 M 4,-12 -2,6 -2,8 -1,9 1,9 3,8 4,7 6,4 m -8,-8 7,0"
       style="fill:none;stroke:#000000"
       inkscape:connector-curvature="0" />
    <path
       id="path4008"
       transform="translate(312,0)"
       d="m -6,0 -2,2 -1,3 0,2 1,2 2,0 2,-1 2,-2 M 0,0 -2,6 -2,8 -1,9 1,9 3,8 5,6 6,3 6,0 m 0,0 1,4 1,1 2,0 2,-1"
       style="fill:none;stroke:#000000"
       inkscape:connector-curvature="0" />
    <path
       id="path4010"
       transform="translate(330,0)"
       d="M 3,3 2,1 0,0 -2,0 -4,1 -5,2 -6,4 -6,6 -5,8 -3,9 -1,9 1,8 2,6 4,0 3,5 3,8 4,9 5,9 7,8 8,7 10,4"
       style="fill:none;stroke:#000000"
       inkscape:connector-curvature="0" />
    <path
       id="path4012"
       transform="translate(345,0)"
       d="M -5,4 -3,1 -2,-1 -2,1 1,1 2,2 2,4 1,7 1,8 2,9 3,9 5,8 6,7 8,4"
       style="fill:none;stroke:#000000"
       inkscape:connector-curvature="0" />
    <path
       id="path4014"
       transform="translate(357,0)"
       d="M -3,7 -1,6 0,5 1,3 1,1 0,0 -1,0 -3,1 -4,3 -4,6 -3,8 -1,9 1,9 3,8 4,7 6,4"
       style="fill:none;stroke:#000000"
       inkscape:connector-curvature="0" />
    <path
       id="path4016"
       transform="translate(371,0)"
       d=""
       style="fill:none;stroke:#000000"
       inkscape:connector-curvature="0" />
    <path
       id="path4018"
       transform="translate(381,0)"
       d="m 1,-5 0,1 1,0 0,-1 -1,0 M -2,4 0,0 -2,6 -2,8 -1,9 0,9 2,8 3,7 5,4"
       style="fill:none;stroke:#000000"
       inkscape:connector-curvature="0" />
    <path
       id="path4020"
       transform="translate(394,0)"
       d="m -8,4 2,-3 2,-1 1,1 0,1 -1,4 -1,3 M -4,6 -3,4 -1,1 1,0 3,0 4,1 4,3 3,6 3,8 4,9 5,9 7,8 8,7 10,4"
       style="fill:none;stroke:#000000"
       inkscape:connector-curvature="0" />
    <path
       id="path4022"
       transform="translate(410,0)"
       d="M 3,3 2,1 0,0 -2,0 -4,1 -5,2 -6,4 -6,6 -5,8 -3,9 -1,9 1,8 2,6 8,-12 M 4,0 3,5 3,8 4,9 5,9 7,8 8,7 10,4"
       style="fill:none;stroke:#000000"
       inkscape:connector-curvature="0" />
    <path
       id="path4024"
       transform="translate(426,0)"
       d="m -6,4 2,-4 -2,6 0,2 1,1 2,0 L -1,8 1,6 3,3 M 4,0 2,6 2,8 3,9 4,9 6,8 7,7 9,4"
       style="fill:none;stroke:#000000"
       inkscape:connector-curvature="0" />
    <path
       id="path4026"
       transform="translate(439,0)"
       d="m -4,4 2,-3 1,-2 0,2 2,3 1,2 0,2 -2,1 M -4,8 -2,9 2,9 4,8 5,7 7,4"
       style="fill:none;stroke:#000000"
       inkscape:connector-curvature="0" />
    <path
       id="path4028"
       transform="translate(449,0)"
       d="M -3,4 -1,1 1,-3 M 4,-12 -2,6 -2,8 -1,9 1,9 3,8 4,7 6,4 m -8,-8 7,0"
       style="fill:none;stroke:#000000"
       inkscape:connector-curvature="0" />
    <path
       id="path4030"
       transform="translate(460,0)"
       d="M -5,4 -3,1 -2,-1 -2,1 1,1 2,2 2,4 1,7 1,8 2,9 3,9 5,8 6,7 8,4"
       style="fill:none;stroke:#000000"
       inkscape:connector-curvature="0" />
    <path
       id="path4032"
       transform="translate(474,0)"
       d="m -6,4 2,-4 -2,6 0,2 1,1 2,0 2,-1 2,-2 2,-3 m 1,-3 -6,18 -1,2 -2,1 -1,-1 0,-2 1,-3 3,-3 L 1,10 3,9 6,7 9,4"
       style="fill:none;stroke:#000000"
       inkscape:connector-curvature="0" />
    <path
       id="path4034"
       transform="translate(488,0)"
       d="m -2,9 -1,-1 1,-1 1,1 0,1 -1,2 -2,2"
       style="fill:none;stroke:#000000"
       inkscape:connector-curvature="0" />
    <path
       id="path4036"
       transform="translate(502,0)"
       d=""
       style="fill:none;stroke:#000000"
       inkscape:connector-curvature="0" />
    <path
       id="path4038"
       transform="translate(516,0)"
       d="M 3,3 2,1 0,0 -2,0 -4,1 -5,2 -6,4 -6,6 -5,8 -3,9 -1,9 1,8 2,6 4,0 3,5 3,8 4,9 5,9 7,8 8,7 10,4"
       style="fill:none;stroke:#000000"
       inkscape:connector-curvature="0" />
    <path
       id="path4040"
       transform="translate(534,0)"
       d="m -8,4 2,-3 2,-1 1,1 0,1 -1,4 -1,3 M -4,6 -3,4 -1,1 1,0 3,0 4,1 4,3 3,6 3,8 4,9 5,9 7,8 8,7 10,4"
       style="fill:none;stroke:#000000"
       inkscape:connector-curvature="0" />
    <path
       id="path4042"
       transform="translate(550,0)"
       d="M 3,3 2,1 0,0 -2,0 -4,1 -5,2 -6,4 -6,6 -5,8 -3,9 -1,9 1,8 2,6 8,-12 M 4,0 3,5 3,8 4,9 5,9 7,8 8,7 10,4"
       style="fill:none;stroke:#000000"
       inkscape:connector-curvature="0" />
    <path
       id="path4044"
       transform="translate(568,0)"
       d=""
       style="fill:none;stroke:#000000"
       inkscape:connector-curvature="0" />
    <path
       id="path4046"
       transform="translate(579,0)"
       d="M -3,4 -1,1 1,-3 M 4,-12 -2,6 -2,8 -1,9 1,9 3,8 4,7 6,4 m -8,-8 7,0"
       style="fill:none;stroke:#000000"
       inkscape:connector-curvature="0" />
    <path
       id="path4048"
       transform="translate(590,0)"
       d="m -5,4 2,-3 3,-5 1,-2 1,-3 0,-2 -1,-1 -2,1 -1,2 -1,4 -1,6 -1,8 M -5,9 -4,6 -3,4 -1,1 1,0 3,0 4,1 4,3 3,6 3,8 4,9 5,9 7,8 8,7 10,4"
       style="fill:none;stroke:#000000"
       inkscape:connector-curvature="0" />
    <path
       id="path4050"
       transform="translate(604,0)"
       d="M -3,7 -1,6 0,5 1,3 1,1 0,0 -1,0 -3,1 -4,3 -4,6 -3,8 -1,9 1,9 3,8 4,7 6,4"
       style="fill:none;stroke:#000000"
       inkscape:connector-curvature="0" />
    <path
       id="path4052"
       transform="translate(616,0)"
       d="m -6,4 2,-4 -2,6 0,2 1,1 2,0 2,-1 2,-2 2,-3 m 1,-3 -6,18 -1,2 -2,1 -1,-1 0,-2 1,-3 3,-3 L 1,10 3,9 6,7 9,4"
       style="fill:none;stroke:#000000"
       inkscape:connector-curvature="0" />
    <path
       id="path4054"
       transform="translate(633,0)"
       d=""
       style="fill:none;stroke:#000000"
       inkscape:connector-curvature="0" />
    <path
       id="path4056"
       transform="translate(646,0)"
       d="M -5,4 -3,1 -2,-1 -2,1 1,1 2,2 2,4 1,7 1,8 2,9 3,9 5,8 6,7 8,4"
       style="fill:none;stroke:#000000"
       inkscape:connector-curvature="0" />
    <path
       id="path4058"
       transform="translate(658,0)"
       d="M -3,7 -1,6 0,5 1,3 1,1 0,0 -1,0 -3,1 -4,3 -4,6 -3,8 -1,9 1,9 3,8 4,7 6,4"
       style="fill:none;stroke:#000000"
       inkscape:connector-curvature="0" />
    <path
       id="path4060"
       transform="translate(671,0)"
       d="m -7,4 2,-3 1,-2 -1,4 -6,18 M -5,3 -4,1 -2,0 0,0 2,1 3,3 3,5 2,7 1,8 -1,9 M -5,8 -3,9 0,9 3,8 5,7 8,4"
       style="fill:none;stroke:#000000"
       inkscape:connector-curvature="0" />
    <path
       id="path4062"
       transform="translate(682,0)"
       d="m -3,4 2,-3 3,-5 1,-2 1,-3 0,-2 -1,-1 -2,1 -1,2 -1,4 -1,7 0,6 1,1 L 0,9 2,8 3,7 5,4"
       style="fill:none;stroke:#000000"
       inkscape:connector-curvature="0" />
    <path
       id="path4064"
       transform="translate(689,0)"
       d="m 1,-5 0,1 1,0 0,-1 -1,0 M -2,4 0,0 -2,6 -2,8 -1,9 0,9 2,8 3,7 5,4"
       style="fill:none;stroke:#000000"
       inkscape:connector-curvature="0" />
    <path
       id="path4066"
       transform="translate(698,0)"
       d="M -3,7 -1,6 0,5 1,3 1,1 0,0 -1,0 -3,1 -4,3 -4,6 -3,8 -1,9 1,9 3,8 4,7 6,4"
       style="fill:none;stroke:#000000"
       inkscape:connector-curvature="0" />
    <path
       id="path4068"
       transform="translate(710,0)"
       d="M 3,3 2,1 0,0 -2,0 -4,1 -5,2 -6,4 -6,6 -5,8 -3,9 -1,9 1,8 2,6 8,-12 M 4,0 3,5 3,8 4,9 5,9 7,8 8,7 10,4"
       style="fill:none;stroke:#000000"
       inkscape:connector-curvature="0" />
    <path
       id="path4070"
       transform="translate(728,0)"
       d=""
       style="fill:none;stroke:#000000"
       inkscape:connector-curvature="0" />
    <path
       id="path4072"
       transform="translate(742,0)"
       d="M 3,3 2,1 0,0 -2,0 -4,1 -5,2 -6,4 -6,6 -5,8 -3,9 -1,9 1,8 2,6 4,0 3,5 3,8 4,9 5,9 7,8 8,7 10,4"
       style="fill:none;stroke:#000000"
       inkscape:connector-curvature="0" />
    <path
       id="path4074"
       transform="translate(756,0)"
       d="m -4,4 2,-3 1,-2 0,2 2,3 1,2 0,2 -2,1 M -4,8 -2,9 2,9 4,8 5,7 7,4"
       style="fill:none;stroke:#000000"
       inkscape:connector-curvature="0" />
    <path
       id="path4076"
       transform="translate(771,0)"
       d=""
       style="fill:none;stroke:#000000"
       inkscape:connector-curvature="0" />
    <path
       id="path4078"
       transform="translate(788,0)"
       d="m -6,0 -2,2 -1,3 0,2 1,2 2,0 2,-1 2,-2 M 0,0 -2,6 -2,8 -1,9 1,9 3,8 5,6 6,3 6,0 m 0,0 1,4 1,1 2,0 2,-1"
       style="fill:none;stroke:#000000"
       inkscape:connector-curvature="0" />
    <path
       id="path4080"
       transform="translate(804,0)"
       d="M -3,7 -1,6 0,5 1,3 1,1 0,0 -1,0 -3,1 -4,3 -4,6 -3,8 -1,9 1,9 3,8 4,7 6,4"
       style="fill:none;stroke:#000000"
       inkscape:connector-curvature="0" />
    <path
       id="path4082"
       transform="translate(813,0)"
       d="m -3,4 2,-3 3,-5 1,-2 1,-3 0,-2 -1,-1 -2,1 -1,2 -1,4 -1,7 0,6 1,1 L 0,9 2,8 3,7 5,4"
       style="fill:none;stroke:#000000"
       inkscape:connector-curvature="0" />
    <path
       id="path4084"
       transform="translate(821,0)"
       d="m -3,4 2,-3 3,-5 1,-2 1,-3 0,-2 -1,-1 -2,1 -1,2 -1,4 -1,7 0,6 1,1 L 0,9 2,8 3,7 5,4"
       style="fill:none;stroke:#000000"
       inkscape:connector-curvature="0" />
    <path
       id="path4086"
       transform="translate(831,0)"
       d="M 3,-12 2,-11 0,1 M 3,-11 0,1 m 3,-13 1,1 -4,12 m -2,6 -1,1 1,1 1,-1 -1,-1"
       style="fill:none;stroke:#000000"
       inkscape:connector-curvature="0" />
    <path
       id="path4088"
       transform="translate(845,0)"
       d=""
       style="fill:none;stroke:#000000"
       inkscape:connector-curvature="0" />
    <path
       id="path4090"
       transform="translate(864,0)"
       d="M -11,9 -9,8 -6,5 -3,1 1,-6 4,-12 4,9 3,6 1,3 -1,1 l -3,-2 -2,0 -1,1 0,2 1,2 2,2 3,2 3,1 5,0"
       style="fill:none;stroke:#000000"
       inkscape:connector-curvature="0" />
    <path
       id="path4092"
       transform="translate(876,0)"
       d="m -3,4 2,-3 3,-5 1,-2 1,-3 0,-2 -1,-1 -2,1 -1,2 -1,4 -1,7 0,6 1,1 L 0,9 2,8 3,7 5,4"
       style="fill:none;stroke:#000000"
       inkscape:connector-curvature="0" />
    <path
       id="path4094"
       transform="translate(884,0)"
       d="m -3,4 2,-3 3,-5 1,-2 1,-3 0,-2 -1,-1 -2,1 -1,2 -1,4 -1,7 0,6 1,1 L 0,9 2,8 3,7 5,4"
       style="fill:none;stroke:#000000"
       inkscape:connector-curvature="0" />
    <path
       id="path4096"
       transform="translate(897,0)"
       d=""
       style="fill:none;stroke:#000000"
       inkscape:connector-curvature="0" />
    <path
       id="path4098"
       transform="translate(911,0)"
       d="m 0,0 -2,0 -2,1 -1,1 -1,2 0,2 1,2 2,1 2,0 L 1,8 2,7 3,5 3,3 2,1 0,0 -1,1 -1,3 0,5 2,6 5,6 7,5 8,4"
       style="fill:none;stroke:#000000"
       inkscape:connector-curvature="0" />
    <path
       id="path4100"
       transform="translate(922,0)"
       d="m -3,4 4,-5 2,-3 1,-2 1,-3 0,-2 -1,-1 -2,1 -1,2 -2,8 -3,9 -3,7 -1,3 0,2 1,1 2,-1 1,-3 1,-9 1,1 L 0,9 2,8 3,7 5,4"
       style="fill:none;stroke:#000000"
       inkscape:connector-curvature="0" />
    <path
       id="path4102"
       transform="translate(935,0)"
       d=""
       style="fill:none;stroke:#000000"
       inkscape:connector-curvature="0" />
    <path
       id="path4104"
       transform="translate(946,0)"
       d="M -3,4 -1,1 1,-3 M 4,-12 -2,6 -2,8 -1,9 1,9 3,8 4,7 6,4 m -8,-8 7,0"
       style="fill:none;stroke:#000000"
       inkscape:connector-curvature="0" />
    <path
       id="path4106"
       transform="translate(957,0)"
       d="m -5,4 2,-3 3,-5 1,-2 1,-3 0,-2 -1,-1 -2,1 -1,2 -1,4 -1,6 -1,8 M -5,9 -4,6 -3,4 -1,1 1,0 3,0 4,1 4,3 3,6 3,8 4,9 5,9 7,8 8,7 10,4"
       style="fill:none;stroke:#000000"
       inkscape:connector-curvature="0" />
    <path
       id="path4108"
       transform="translate(971,0)"
       d="M -3,7 -1,6 0,5 1,3 1,1 0,0 -1,0 -3,1 -4,3 -4,6 -3,8 -1,9 1,9 3,8 4,7 6,4"
       style="fill:none;stroke:#000000"
       inkscape:connector-curvature="0" />
    <path
       id="path4110"
       transform="translate(990,0)"
       d="m -13,4 2,-3 2,-1 1,1 0,1 -1,4 -1,3 m 1,-3 1,-2 2,-3 2,-1 2,0 1,1 0,1 -1,4 -1,3 M -2,6 -1,4 1,1 3,0 5,0 6,1 6,3 5,6 5,8 6,9 7,9 9,8 10,7 12,4"
       style="fill:none;stroke:#000000"
       inkscape:connector-curvature="0" />
    <path
       id="path4112"
       transform="translate(1007,0)"
       d="M 0,7 -1,8 0,9 1,8 0,7"
       style="fill:none;stroke:#000000"
       inkscape:connector-curvature="0" />
    <path
       id="path4114"
       transform="translate(1020,0)"
       d=""
       style="fill:none;stroke:#000000"
       inkscape:connector-curvature="0" />
    <path
       id="path4116"
       transform="translate(1038,0)"
       d="m 0,-6 -2,0 -2,-1 -1,-2 1,-2 3,-1 3,0 4,1 3,0 2,-1 M 6,-11 4,-4 2,2 0,6 -2,8 -4,9 -6,9 -8,8 -9,6 l 0,-2 1,-1 2,0 2,1"
       style="fill:none;stroke:#000000"
       inkscape:connector-curvature="0" />
    <path
       id="path4118"
       transform="translate(1052,0)"
       d="m -5,4 2,-3 3,-5 1,-2 1,-3 0,-2 -1,-1 -2,1 -1,2 -1,4 -1,6 -1,8 M -5,9 -4,6 -3,4 -1,1 1,0 3,0 4,1 4,3 3,6 3,8 4,9 5,9 7,8 8,7 10,4"
       style="fill:none;stroke:#000000"
       inkscape:connector-curvature="0" />
    <path
       id="path4120"
       transform="translate(1064,0)"
       d="m 1,-5 0,1 1,0 0,-1 -1,0 M -2,4 0,0 -2,6 -2,8 -1,9 0,9 2,8 3,7 5,4"
       style="fill:none;stroke:#000000"
       inkscape:connector-curvature="0" />
    <path
       id="path4122"
       transform="translate(1073,0)"
       d="m -4,4 2,-3 1,-2 0,2 2,3 1,2 0,2 -2,1 M -4,8 -2,9 2,9 4,8 5,7 7,4"
       style="fill:none;stroke:#000000"
       inkscape:connector-curvature="0" />
    <path
       id="path4124"
       transform="translate(1088,0)"
       d=""
       style="fill:none;stroke:#000000"
       inkscape:connector-curvature="0" />
    <path
       id="path4126"
       transform="translate(1105,0)"
       d="m -6,0 -2,2 -1,3 0,2 1,2 2,0 2,-1 2,-2 M 0,0 -2,6 -2,8 -1,9 1,9 3,8 5,6 6,3 6,0 m 0,0 1,4 1,1 2,0 2,-1"
       style="fill:none;stroke:#000000"
       inkscape:connector-curvature="0" />
    <path
       id="path4128"
       transform="translate(1123,0)"
       d="M 3,3 2,1 0,0 -2,0 -4,1 -5,2 -6,4 -6,6 -5,8 -3,9 -1,9 1,8 2,6 4,0 3,5 3,8 4,9 5,9 7,8 8,7 10,4"
       style="fill:none;stroke:#000000"
       inkscape:connector-curvature="0" />
    <path
       id="path4130"
       transform="translate(1137,0)"
       d="m -4,4 2,-3 1,-2 0,2 2,3 1,2 0,2 -2,1 M -4,8 -2,9 2,9 4,8 5,7 7,4"
       style="fill:none;stroke:#000000"
       inkscape:connector-curvature="0" />
    <path
       id="path4132"
       transform="translate(1152,0)"
       d=""
       style="fill:none;stroke:#000000"
       inkscape:connector-curvature="0" />
  </g>
</svg>
