<?xml version="1.0" encoding="UTF-8" standalone="no"?>
<svg id="svg2" xmlns:rdf="http://www.w3.org/1999/02/22-rdf-syntax-ns#" xmlns="http://www.w3.org/2000/svg" viewBox="0 0 1157.832 34.216762" height="9.6567mm" width="326.77mm" version="1.1" xmlns:cc="http://creativecommons.org/ns#" xmlns:dc="http://purl.org/dc/elements/1.1/">
 <g id="g4228" stroke="#000" fill="none" transform="translate(.41603 12.608)">
  <path id="path4230" d="m-3 4 2-3 2-4m3-9-6 18v2l1 1h2l2-1 1-1 2-3m-8-8h7" transform="translate(3)"/>
  <path id="path4232" d="m-5 4 2-3 3-5 1-2 1-3v-2l-1-1-2 1-1 2-1 4-1 6-1 8 1-3 1-2 2-3 2-1h2l1 1v2l-1 3v2l1 1h1l2-1 1-1 2-3" transform="translate(14)"/>
  <path id="path4234" d="m-3 7 2-1 1-1 1-2v-2l-1-1h-1l-2 1-1 2v3l1 2 2 1h2l2-1 1-1 2-3" transform="translate(28)"/>
  <path id="path4236" d="m1-5v1h1v-1h-1m-3 9 2-4-2 6v2l1 1h1l2-1 1-1 2-3" transform="translate(36)"/>
  <path id="path4238" d="m-5 4 2-3 1-2v2h3l1 1v2l-1 3v1l1 1h1l2-1 1-1 2-3" transform="translate(46)"/>
  <path id="path4242" d="m2 2v-1l-1-1h-2l-2 1-1 1-1 2v2l1 2 2 1h3l3-2 2-3" transform="translate(75)"/>
  <path id="path4244" d="m0 0h-2l-2 1-1 1-1 2v2l1 2 2 1h2l2-1 1-1 1-2v-2l-1-2-2-1-1 1v2l1 2 2 1h3l2-1 1-1" transform="translate(87)"/>
  <path id="path4246" d="m-8 4 2-3 2-1 1 1v1l-1 4-1 3m1-3 1-2 2-3 2-1h2l1 1v2l-1 3v2l1 1h1l2-1 1-1 2-3" transform="translate(103)"/>
  <path id="path4248" d="m-3 4 2-3 2-4m3-9-6 18v2l1 1h2l2-1 1-1 2-3m-8-8h7" transform="translate(116)"/>
  <path id="path4250" d="m-5 4 2-3 1-2v2h3l1 1v2l-1 3v1l1 1h1l2-1 1-1 2-3" transform="translate(127)"/>
  <path id="path4252" d="m1-5v1h1v-1h-1m-3 9 2-4-2 6v2l1 1h1l2-1 1-1 2-3" transform="translate(137)"/>
  <path id="path4254" d="m-5 4 2-3 3-5 1-2 1-3v-2l-1-1-2 1-1 2-1 4-1 7v6l1 1h1l2-1 2-2 1-3v-3l1 4 1 1h2l2-1" transform="translate(147)"/>
  <path id="path4256" d="m-6 4 2-4-2 6v2l1 1h2l2-1 2-2 2-3m1-3-2 6v2l1 1h1l2-1 1-1 2-3" transform="translate(162)"/>
  <path id="path4258" d="m-3 4 2-3 2-4m3-9-6 18v2l1 1h2l2-1 1-1 2-3m-8-8h7" transform="translate(174)"/>
  <path id="path4260" d="m1-5v1h1v-1h-1m-3 9 2-4-2 6v2l1 1h1l2-1 1-1 2-3" transform="translate(182)"/>
  <path id="path4262" d="m0 0h-2l-2 1-1 1-1 2v2l1 2 2 1h2l2-1 1-1 1-2v-2l-1-2-2-1-1 1v2l1 2 2 1h3l2-1 1-1" transform="translate(193)"/>
  <path id="path4264" d="m-8 4 2-3 2-1 1 1v1l-1 4-1 3m1-3 1-2 2-3 2-1h2l1 1v2l-1 3v2l1 1h1l2-1 1-1 2-3" transform="translate(209)"/>
  <path id="path4268" d="m-3 4 2-3 2-4m3-9-6 18v2l1 1h2l2-1 1-1 2-3m-8-8h7" transform="translate(238)"/>
  <path id="path4270" d="m0 0h-2l-2 1-1 1-1 2v2l1 2 2 1h2l2-1 1-1 1-2v-2l-1-2-2-1-1 1v2l1 2 2 1h3l2-1 1-1" transform="translate(250)"/>
  <path id="path4272" d="m-6 0-2 2-1 3v2l1 2h2l2-1 2-2m2-6-2 6v2l1 1h2l2-1 2-2 1-3v-3l1 4 1 1h2l2-1" transform="translate(267)"/>
  <path id="path4274" d="m3 3-1-2-2-1h-2l-2 1-1 1-1 2v2l1 2 2 1h2l2-1 1-2 2-6-1 5v3l1 1h1l2-1 1-1 2-3" transform="translate(285)"/>
  <path id="path4276" d="m-5 4 2-3 1-2v2h3l1 1v2l-1 3v1l1 1h1l2-1 1-1 2-3" transform="translate(300)"/>
  <path id="path4278" d="m3 3-1-2-2-1h-2l-2 1-1 1-1 2v2l1 2 2 1h2l2-1 1-2 6-18m-4 12-1 5v3l1 1h1l2-1 1-1 2-3" transform="translate(314)"/>
  <path id="path4280" d="m-4 4 2-3 1-2v2l2 3 1 2v2l-2 1m-4-1 2 1h4l2-1 1-1 2-3" transform="translate(328)"/>
  <path id="path4284" d="m-13 4 2-3 2-1 1 1v1l-1 4-1 3m1-3 1-2 2-3 2-1h2l1 1v1l-1 4-1 3m1-3 1-2 2-3 2-1h2l1 1v2l-1 3v2l1 1h1l2-1 1-1 2-3" transform="translate(364)"/>
  <path id="path4286" d="m3 3-1-2-2-1h-2l-2 1-1 1-1 2v2l1 2 2 1h2l2-1 1-2 2-6-1 5v3l1 1h1l2-1 1-1 2-3" transform="translate(382)"/>
  <path id="path4288" d="m-5 4 2-3 3-5 1-2 1-3v-2l-1-1-2 1-1 2-1 4-1 6-1 8 1-3 1-2 2-3 2-1h2l1 1v2l-2 1h-3l2 1 1 3 1 1h1l2-1 1-1 2-3" transform="translate(397)"/>
  <path id="path4290" d="m1-5v1h1v-1h-1m-3 9 2-4-2 6v2l1 1h1l2-1 1-1 2-3" transform="translate(408)"/>
  <path id="path4292" d="m-8 4 2-3 2-1 1 1v1l-1 4-1 3m1-3 1-2 2-3 2-1h2l1 1v2l-1 3v2l1 1h1l2-1 1-1 2-3" transform="translate(421)"/>
  <path id="path4294" d="m3 3-1-2-2-1h-2l-2 1-1 1-1 2v2l1 2 2 1h2l2-1 1-1m2-7-2 7-4 11-1 2-2 1-1-1v-2l1-3 3-3 3-2 2-1 3-2 3-3" transform="translate(437)"/>
  <path id="path4298" d="m-3 4 2-3 2-4m3-9-6 18v2l1 1h2l2-1 1-1 2-3m-8-8h7" transform="translate(465)"/>
  <path id="path4300" d="m-5 4 2-3 3-5 1-2 1-3v-2l-1-1-2 1-1 2-1 4-1 6-1 8 1-3 1-2 2-3 2-1h2l1 1v2l-1 3v2l1 1h1l2-1 1-1 2-3" transform="translate(476)"/>
  <path id="path4302" d="m1-5v1h1v-1h-1m-3 9 2-4-2 6v2l1 1h1l2-1 1-1 2-3" transform="translate(488)"/>
  <path id="path4304" d="m-4 4 2-3 1-2v2l2 3 1 2v2l-2 1m-4-1 2 1h4l2-1 1-1 2-3" transform="translate(497)"/>
  <path id="path4308" d="m3 3-1-2-2-1h-2l-2 1-1 1-1 2v2l1 2 2 1h2l2-1 1-1m2-7-2 7-4 11-1 2-2 1-1-1v-2l1-3 3-3 3-2 2-1 3-2 3-3" transform="translate(526)"/>
  <path id="path4310" d="m1-5v1h1v-1h-1m-3 9 2-4-2 6v2l1 1h1l2-1 1-1 2-3" transform="translate(537)"/>
  <path id="path4312" d="m-3 4 4-5 2-3 1-2 1-3v-2l-1-1-2 1-1 2-2 8-3 9-3 7-1 3v2l1 1 2-1 1-3 1-9 1 1h2l2-1 1-1 2-3" transform="translate(545)"/>
  <path id="path4314" d="m-3 4 2-3 2-4m3-9-6 18v2l1 1h2l2-1 1-1 2-3m-8-8h7" transform="translate(553)"/>
  <path id="path4316" d="m0 7-1 1 1 1 1-1-1-1" transform="translate(564)"/>
  <path id="path4320" d="m0-6h-2l-2-1-1-2 1-2 3-1h3l4 1h3l2-1m-5 1-2 7-2 6-2 4-2 2-2 1h-2l-2-1-1-2v-2l1-1h2l2 1" transform="translate(595)"/>
  <path id="path4322" d="m-5 4 2-3 3-5 1-2 1-3v-2l-1-1-2 1-1 2-1 4-1 6-1 8 1-3 1-2 2-3 2-1h2l1 1v2l-1 3v2l1 1h1l2-1 1-1 2-3" transform="translate(609)"/>
  <path id="path4324" d="m1-5v1h1v-1h-1m-3 9 2-4-2 6v2l1 1h1l2-1 1-1 2-3" transform="translate(621)"/>
  <path id="path4326" d="m-4 4 2-3 1-2v2l2 3 1 2v2l-2 1m-4-1 2 1h4l2-1 1-1 2-3" transform="translate(630)"/>
  <path id="path4330" d="m1-5v1h1v-1h-1m-3 9 2-4-2 6v2l1 1h1l2-1 1-1 2-3" transform="translate(655)"/>
  <path id="path4332" d="m-4 4 2-3 1-2v2l2 3 1 2v2l-2 1m-4-1 2 1h4l2-1 1-1 2-3" transform="translate(664)"/>
  <path id="path4336" d="m-3 4 2-3 2-4m3-9-6 18v2l1 1h2l2-1 1-1 2-3m-8-8h7" transform="translate(690)"/>
  <path id="path4338" d="m-5 4 2-3 3-5 1-2 1-3v-2l-1-1-2 1-1 2-1 4-1 6-1 8 1-3 1-2 2-3 2-1h2l1 1v2l-1 3v2l1 1h1l2-1 1-1 2-3" transform="translate(701)"/>
  <path id="path4340" d="m-3 7 2-1 1-1 1-2v-2l-1-1h-1l-2 1-1 2v3l1 2 2 1h2l2-1 1-1 2-3" transform="translate(715)"/>
  <path id="path4344" d="m2 2v-1l-1-1h-2l-2 1-1 1-1 2v2l1 2 2 1h3l3-2 2-3" transform="translate(742)"/>
  <path id="path4346" d="m0 0h-2l-2 1-1 1-1 2v2l1 2 2 1h2l2-1 1-1 1-2v-2l-1-2-2-1-1 1v2l1 2 2 1h3l2-1 1-1" transform="translate(754)"/>
  <path id="path4348" d="m-13 4 2-3 2-1 1 1v1l-1 4-1 3m1-3 1-2 2-3 2-1h2l1 1v1l-1 4-1 3m1-3 1-2 2-3 2-1h2l1 1v2l-1 3v2l1 1h1l2-1 1-1 2-3" transform="translate(775)"/>
  <path id="path4350" d="m-7 4 2-3 1-2-1 4-6 18m6-18 1-2 2-1h2l2 1 1 2v2l-1 2-1 1-2 1m-4-1 2 1h3l3-1 2-1 3-3" transform="translate(794)"/>
  <path id="path4352" d="m-3 7 2-1 1-1 1-2v-2l-1-1h-1l-2 1-1 2v3l1 2 2 1h2l2-1 1-1 2-3" transform="translate(806)"/>
  <path id="path4354" d="m-8 4 2-3 2-1 1 1v1l-1 4-1 3m1-3 1-2 2-3 2-1h2l1 1v2l-1 3v2l1 1h1l2-1 1-1 2-3" transform="translate(820)"/>
  <path id="path4356" d="m-4 4 2-3 1-2v2l2 3 1 2v2l-2 1m-4-1 2 1h4l2-1 1-1 2-3" transform="translate(834)"/>
  <path id="path4358" d="m3 3-1-2-2-1h-2l-2 1-1 1-1 2v2l1 2 2 1h2l2-1 1-2 2-6-1 5v3l1 1h1l2-1 1-1 2-3" transform="translate(847)"/>
  <path id="path4360" d="m-3 4 2-3 2-4m3-9-6 18v2l1 1h2l2-1 1-1 2-3m-8-8h7" transform="translate(860)"/>
  <path id="path4362" d="m1-5v1h1v-1h-1m-3 9 2-4-2 6v2l1 1h1l2-1 1-1 2-3" transform="translate(868)"/>
  <path id="path4364" d="m0 0h-2l-2 1-1 1-1 2v2l1 2 2 1h2l2-1 1-1 1-2v-2l-1-2-2-1-1 1v2l1 2 2 1h3l2-1 1-1" transform="translate(879)"/>
  <path id="path4366" d="m-8 4 2-3 2-1 1 1v1l-1 4-1 3m1-3 1-2 2-3 2-1h2l1 1v2l-1 3v2l1 1h1l2-1 1-1 2-3" transform="translate(895)"/>
  <path id="path4370" d="m-3 4 4-5 2-3 1-2 1-3v-2l-1-1-2 1-1 2-2 8-3 9-3 7-1 3v2l1 1 2-1 1-3 1-9 1 1h2l2-1 1-1 2-3" transform="translate(924)"/>
  <path id="path4372" d="m0 0h-2l-2 1-1 1-1 2v2l1 2 2 1h2l2-1 1-1 1-2v-2l-1-2-2-1-1 1v2l1 2 2 1h3l2-1 1-1" transform="translate(935)"/>
  <path id="path4374" d="m-5 4 2-3 1-2v2h3l1 1v2l-1 3v1l1 1h1l2-1 1-1 2-3" transform="translate(948)"/>
  <path id="path4378" d="m-8 4 2-3 2-1 1 1v1l-1 4-1 3m1-3 1-2 2-3 2-1h2l1 1v2l-1 3v2l1 1h1l2-1 1-1 2-3" transform="translate(980)"/>
  <path id="path4380" d="m0 0h-2l-2 1-1 1-1 2v2l1 2 2 1h2l2-1 1-1 1-2v-2l-1-2-2-1-1 1v2l1 2 2 1h3l2-1 1-1" transform="translate(996)"/>
  <path id="path4382" d="m-3 4 2-3 2-4m3-9-6 18v2l1 1h2l2-1 1-1 2-3m-8-8h7" transform="translate(1007)"/>
  <path id="path4386" d="m-5 4 2-3 3-5 1-2 1-3v-2l-1-1-2 1-1 2-1 4-1 7v6l1 1h1l2-1 2-2 1-3v-3l1 4 1 1h2l2-1" transform="translate(1034)"/>
  <path id="path4388" d="m-3 7 2-1 1-1 1-2v-2l-1-1h-1l-2 1-1 2v3l1 2 2 1h2l2-1 1-1 2-3" transform="translate(1047)"/>
  <path id="path4390" d="m1-5v1h1v-1h-1m-3 9 2-4-2 6v2l1 1h1l2-1 1-1 2-3" transform="translate(1055)"/>
  <path id="path4392" d="m-8 4 2-3 2-1 1 1v1l-1 4-1 3m1-3 1-2 2-3 2-1h2l1 1v2l-1 3v2l1 1h1l2-1 1-1 2-3" transform="translate(1068)"/>
  <path id="path4394" d="m3 3-1-2-2-1h-2l-2 1-1 1-1 2v2l1 2 2 1h2l2-1 1-1m2-7-2 7-4 11-1 2-2 1-1-1v-2l1-3 3-3 3-2 2-1 3-2 3-3" transform="translate(1084)"/>
  <path id="path4398" d="m3 3-1-2-2-1h-2l-2 1-1 1-1 2v2l1 2 2 1h2l2-1 1-2 2-6-1 5v3l1 1h1l2-1 1-1 2-3" transform="translate(1115)"/>
  <path id="path4400" d="m-5 4 2-3 3-5 1-2 1-3v-2l-1-1-2 1-1 2-1 4-1 7v6l1 1h1l2-1 2-2 1-3v-3l1 4 1 1h2l2-1" transform="translate(1130)"/>
  <path id="path4402" d="m-3 4 2-3 3-5 1-2 1-3v-2l-1-1-2 1-1 2-1 4-1 7v6l1 1h1l2-1 1-1 2-3" transform="translate(1142)"/>
  <path id="path4404" d="m-3 7 2-1 1-1 1-2v-2l-1-1h-1l-2 1-1 2v3l1 2 2 1h2l2-1 1-1 2-3" transform="translate(1151)"/>
 </g>
</svg>
