<?xml version="1.0" encoding="UTF-8" standalone="no"?>
<svg id="svg2" xmlns:rdf="http://www.w3.org/1999/02/22-rdf-syntax-ns#" xmlns="http://www.w3.org/2000/svg" height="9.6567mm" width="317.45mm" version="1.1" xmlns:cc="http://creativecommons.org/ns#" xmlns:dc="http://purl.org/dc/elements/1.1/" viewBox="0 0 1124.8321 34.216762">
 <g id="g4503" stroke="#000" fill="none" transform="translate(.41603 12.608)">
  <path id="path4505" d="m-3 4 2-3 2-4m3-9-6 18v2l1 1h2l2-1 1-1 2-3m-8-8h7" transform="translate(3)"/>
  <path id="path4507" d="m0 0h-2l-2 1-1 1-1 2v2l1 2 2 1h2l2-1 1-1 1-2v-2l-1-2-2-1-1 1v2l1 2 2 1h3l2-1 1-1" transform="translate(15)"/>
  <path id="path4511" d="m-6 0-2 2-1 3v2l1 2h2l2-1 2-2m2-6-2 6v2l1 1h2l2-1 2-2 1-3v-3l1 4 1 1h2l2-1" transform="translate(48)"/>
  <path id="path4513" d="m-5 4 2-3 1-2v2h3l1 1v2l-1 3v1l1 1h1l2-1 1-1 2-3" transform="translate(65)"/>
  <path id="path4515" d="m1-5v1h1v-1h-1m-3 9 2-4-2 6v2l1 1h1l2-1 1-1 2-3" transform="translate(75)"/>
  <path id="path4517" d="m-3 4 2-3 2-4m3-9-6 18v2l1 1h2l2-1 1-1 2-3m-8-8h7" transform="translate(83)"/>
  <path id="path4519" d="m-3 7 2-1 1-1 1-2v-2l-1-1h-1l-2 1-1 2v3l1 2 2 1h2l2-1 1-1 2-3" transform="translate(93)"/>
  <path id="path4523" d="m-3 4 2-3 2-4m3-9-6 18v2l1 1h2l2-1 1-1 2-3m-8-8h7" transform="translate(118)"/>
  <path id="path4525" d="m0 0h-2l-2 1-1 1-1 2v2l1 2 2 1h2l2-1 1-1 1-2v-2l-1-2-2-1-1 1v2l1 2 2 1h3l2-1 1-1" transform="translate(130)"/>
  <path id="path4529" d="m-6 4 2-4-2 6v2l1 1h2l2-1 2-2 2-3m1-3-6 18-1 2-2 1-1-1v-2l1-3 3-3 3-2 2-1 3-2 3-3" transform="translate(160)"/>
  <path id="path4531" d="m0 0h-2l-2 1-1 1-1 2v2l1 2 2 1h2l2-1 1-1 1-2v-2l-1-2-2-1-1 1v2l1 2 2 1h3l2-1 1-1" transform="translate(175)"/>
  <path id="path4533" d="m-6 4 2-4-2 6v2l1 1h2l2-1 2-2 2-3m1-3-2 6v2l1 1h1l2-1 1-1 2-3" transform="translate(189)"/>
  <path id="path4537" d="m3 3-1-2-2-1h-2l-2 1-1 1-1 2v2l1 2 2 1h2l2-1 1-2 2-6-1 5v3l1 1h1l2-1 1-1 2-3" transform="translate(220)"/>
  <path id="path4539" d="m2 2v-1l-1-1h-2l-2 1-1 1-1 2v2l1 2 2 1h3l3-2 2-3" transform="translate(235)"/>
  <path id="path4541" d="m-3 4 2-3 2-4m3-9-6 18v2l1 1h2l2-1 1-1 2-3m-8-8h7" transform="translate(244)"/>
  <path id="path4543" d="m-6 4 2-4-2 6v2l1 1h2l2-1 2-2 2-3m1-3-2 6v2l1 1h1l2-1 1-1 2-3" transform="translate(256)"/>
  <path id="path4545" d="m3 3-1-2-2-1h-2l-2 1-1 1-1 2v2l1 2 2 1h2l2-1 1-2 2-6-1 5v3l1 1h1l2-1 1-1 2-3" transform="translate(271)"/>
  <path id="path4547" d="m-3 4 2-3 3-5 1-2 1-3v-2l-1-1-2 1-1 2-1 4-1 7v6l1 1h1l2-1 1-1 2-3" transform="translate(284)"/>
  <path id="path4551" d="m-3 4 2-3 3-5 1-2 1-3v-2l-1-1-2 1-1 2-1 4-1 7v6l1 1h1l2-1 1-1 2-3" transform="translate(308)"/>
  <path id="path4553" d="m-3 7 2-1 1-1 1-2v-2l-1-1h-1l-2 1-1 2v3l1 2 2 1h2l2-1 1-1 2-3" transform="translate(317)"/>
  <path id="path4555" d="m-3 4 2-3 2-4m3-9-6 18v2l1 1h2l2-1 1-1 2-3m-8-8h7" transform="translate(326)"/>
  <path id="path4557" d="m-3 4 2-3 2-4m3-9-6 18v2l1 1h2l2-1 1-1 2-3m-8-8h7" transform="translate(335)"/>
  <path id="path4559" d="m-3 7 2-1 1-1 1-2v-2l-1-1h-1l-2 1-1 2v3l1 2 2 1h2l2-1 1-1 2-3" transform="translate(345)"/>
  <path id="path4561" d="m-5 4 2-3 1-2v2h3l1 1v2l-1 3v1l1 1h1l2-1 1-1 2-3" transform="translate(356)"/>
  <path id="path4563" d="m-4 4 2-3 1-2v2l2 3 1 2v2l-2 1m-4-1 2 1h4l2-1 1-1 2-3" transform="translate(368)"/>
  <path id="path4567" d="m3 3-1-2-2-1h-2l-2 1-1 1-1 2v2l1 2 2 1h2l2-1 1-2 2-6-1 5v3l1 1h1l2-1 1-1 2-3" transform="translate(397)"/>
  <path id="path4569" d="m-8 4 2-3 2-1 1 1v1l-1 4-1 3m1-3 1-2 2-3 2-1h2l1 1v2l-1 3v2l1 1h1l2-1 1-1 2-3" transform="translate(415)"/>
  <path id="path4571" d="m3 3-1-2-2-1h-2l-2 1-1 1-1 2v2l1 2 2 1h2l2-1 1-2 6-18m-4 12-1 5v3l1 1h1l2-1 1-1 2-3" transform="translate(431)"/>
  <path id="path4575" d="m-3 4 4-5 2-3 1-2 1-3v-2l-1-1-2 1-1 2-2 8-3 9-3 7-1 3v2l1 1 2-1 1-3 1-9 1 1h2l2-1 1-1 2-3" transform="translate(460)"/>
  <path id="path4577" d="m0 0h-2l-2 1-1 1-1 2v2l1 2 2 1h2l2-1 1-1 1-2v-2l-1-2-2-1-1 1v2l1 2 2 1h3l2-1 1-1" transform="translate(471)"/>
  <path id="path4579" d="m-5 4 2-3 1-2v2h3l1 1v2l-1 3v1l1 1h1l2-1 1-1 2-3" transform="translate(484)"/>
  <path id="path4583" d="m-3 4 2-3 2-4m3-9-6 18v2l1 1h2l2-1 1-1 2-3m-8-8h7" transform="translate(511)"/>
  <path id="path4585" d="m-5 4 2-3 3-5 1-2 1-3v-2l-1-1-2 1-1 2-1 4-1 6-1 8 1-3 1-2 2-3 2-1h2l1 1v2l-1 3v2l1 1h1l2-1 1-1 2-3" transform="translate(522)"/>
  <path id="path4587" d="m-3 7 2-1 1-1 1-2v-2l-1-1h-1l-2 1-1 2v3l1 2 2 1h2l2-1 1-1 2-3" transform="translate(536)"/>
  <path id="path4591" d="m-3 4 2-3 2-4m3-9-6 18v2l1 1h2l2-1 1-1 2-3m-8-8h7" transform="translate(561)"/>
  <path id="path4593" d="m1-5v1h1v-1h-1m-3 9 2-4-2 6v2l1 1h1l2-1 1-1 2-3" transform="translate(569)"/>
  <path id="path4595" d="m-13 4 2-3 2-1 1 1v1l-1 4-1 3m1-3 1-2 2-3 2-1h2l1 1v1l-1 4-1 3m1-3 1-2 2-3 2-1h2l1 1v2l-1 3v2l1 1h1l2-1 1-1 2-3" transform="translate(587)"/>
  <path id="path4597" d="m-3 7 2-1 1-1 1-2v-2l-1-1h-1l-2 1-1 2v3l1 2 2 1h2l2-1 1-1 2-3" transform="translate(603)"/>
  <path id="path4599" d="m-4 4 2-3 1-2v2l2 3 1 2v2l-2 1m-4-1 2 1h4l2-1 1-1 2-3" transform="translate(613)"/>
  <path id="path4603" d="m-3 4 2-3 2-4m3-9-6 18v2l1 1h2l2-1 1-1 2-3m-8-8h7" transform="translate(639)"/>
  <path id="path4605" d="m-5 4 2-3 3-5 1-2 1-3v-2l-1-1-2 1-1 2-1 4-1 6-1 8 1-3 1-2 2-3 2-1h2l1 1v2l-1 3v2l1 1h1l2-1 1-1 2-3" transform="translate(650)"/>
  <path id="path4607" d="m3 3-1-2-2-1h-2l-2 1-1 1-1 2v2l1 2 2 1h2l2-1 1-2 2-6-1 5v3l1 1h1l2-1 1-1 2-3" transform="translate(666)"/>
  <path id="path4609" d="m-3 4 2-3 2-4m3-9-6 18v2l1 1h2l2-1 1-1 2-3m-8-8h7" transform="translate(679)"/>
  <path id="path4613" d="m5 4-2-2-2-3-1-2l-1-3v-3l1-2 1-1h2l1 1 1 2v3l-1 5-2 5-1 2-2 2-2 1h-2l-2-1-1-2v-2l1-1h2l2 1" transform="translate(710)"/>
  <path id="path4617" d="m-4 4 2-3 1-2v2l2 3 1 2v2l-2 1m-4-1 2 1h4l2-1 1-1 2-3" transform="translate(738)"/>
  <path id="path4619" d="m0 0h-2l-2 1-1 1-1 2v2l1 2 2 1h2l2-1 1-1 1-2v-2l-1-2-2-1-1 1v2l1 2 2 1h3l2-1 1-1" transform="translate(751)"/>
  <path id="path4621" d="m-13 4 2-3 2-1 1 1v1l-1 4-1 3m1-3 1-2 2-3 2-1h2l1 1v1l-1 4-1 3m1-3 1-2 2-3 2-1h2l1 1v2l-1 3v2l1 1h1l2-1 1-1 2-3" transform="translate(772)"/>
  <path id="path4623" d="m-3 7 2-1 1-1 1-2v-2l-1-1h-1l-2 1-1 2v3l1 2 2 1h2l2-1 1-1 2-3" transform="translate(788)"/>
  <path id="path4625" d="m-3 4 2-3 2-4m3-9-6 18v2l1 1h2l2-1 1-1 2-3m-8-8h7" transform="translate(797)"/>
  <path id="path4627" d="m1-5v1h1v-1h-1m-3 9 2-4-2 6v2l1 1h1l2-1 1-1 2-3" transform="translate(805)"/>
  <path id="path4629" d="m-13 4 2-3 2-1 1 1v1l-1 4-1 3m1-3 1-2 2-3 2-1h2l1 1v1l-1 4-1 3m1-3 1-2 2-3 2-1h2l1 1v2l-1 3v2l1 1h1l2-1 1-1 2-3" transform="translate(823)"/>
  <path id="path4631" d="m-3 7 2-1 1-1 1-2v-2l-1-1h-1l-2 1-1 2v3l1 2 2 1h2l2-1 1-1 2-3" transform="translate(839)"/>
  <path id="path4633" d="m-4 4 2-3 1-2v2l2 3 1 2v2l-2 1m-4-1 2 1h4l2-1 1-1 2-3" transform="translate(849)"/>
  <path id="path4637" d="m-3 4 4-5 2-3 1-2 1-3v-2l-1-1-2 1-1 2-2 8-3 9-3 7-1 3v2l1 1 2-1 1-3 1-9 1 1h2l2-1 1-1 2-3" transform="translate(875)"/>
  <path id="path4639" d="m0 0h-2l-2 1-1 1-1 2v2l1 2 2 1h2l2-1 1-1 1-2v-2l-1-2-2-1-1 1v2l1 2 2 1h3l2-1 1-1" transform="translate(886)"/>
  <path id="path4641" d="m-5 4 2-3 1-2v2h3l1 1v2l-1 3v1l1 1h1l2-1 1-1 2-3" transform="translate(899)"/>
  <path id="path4643" d="m3 3-1-2-2-1h-2l-2 1-1 1-1 2v2l1 2 2 1h2l2-1 1-1m2-7-2 7-4 11-1 2-2 1-1-1v-2l1-3 3-3 3-2 2-1 3-2 3-3" transform="translate(913)"/>
  <path id="path4645" d="m-3 7 2-1 1-1 1-2v-2l-1-1h-1l-2 1-1 2v3l1 2 2 1h2l2-1 1-1 2-3" transform="translate(926)"/>
  <path id="path4647" d="m-3 4 2-3 2-4m3-9-6 18v2l1 1h2l2-1 1-1 2-3m-8-8h7" transform="translate(935)"/>
  <path id="path4651" d="m-3 4 2-3 2-4m3-9-6 18v2l1 1h2l2-1 1-1 2-3m-8-8h7" transform="translate(960)"/>
  <path id="path4653" d="m0 0h-2l-2 1-1 1-1 2v2l1 2 2 1h2l2-1 1-1 1-2v-2l-1-2-2-1-1 1v2l1 2 2 1h3l2-1 1-1" transform="translate(972)"/>
  <path id="path4657" d="m-5 4 2-3 1-2v2h3l1 1v2l-1 3v1l1 1h1l2-1 1-1 2-3" transform="translate(1001)"/>
  <path id="path4659" d="m-3 7 2-1 1-1 1-2v-2l-1-1h-1l-2 1-1 2v3l1 2 2 1h2l2-1 1-1 2-3" transform="translate(1013)"/>
  <path id="path4661" d="m3 3-1-2-2-1h-2l-2 1-1 1-1 2v2l1 2 2 1h2l2-1 1-2 2-6-1 5v3l1 1h1l2-1 1-1 2-3" transform="translate(1025)"/>
  <path id="path4663" d="m3 3-1-2-2-1h-2l-2 1-1 1-1 2v2l1 2 2 1h2l2-1 1-2 6-18m-4 12-1 5v3l1 1h1l2-1 1-1 2-3" transform="translate(1041)"/>
  <path id="path4667" d="m-6 4 2-4-2 6v2l1 1h2l2-1 2-2 2-3m1-3-6 18-1 2-2 1-1-1v-2l1-3 3-3 3-2 2-1 3-2 3-3" transform="translate(1073)"/>
  <path id="path4669" d="m0 0h-2l-2 1-1 1-1 2v2l1 2 2 1h2l2-1 1-1 1-2v-2l-1-2-2-1-1 1v2l1 2 2 1h3l2-1 1-1" transform="translate(1088)"/>
  <path id="path4671" d="m-6 4 2-4-2 6v2l1 1h2l2-1 2-2 2-3m1-3-2 6v2l1 1h1l2-1 1-1 2-3" transform="translate(1102)"/>
  <path id="path4673" d="m-5 4 2-3 1-2v2h3l1 1v2l-1 3v1l1 1h1l2-1 1-1 2-3" transform="translate(1116)"/>
 </g>
</svg>
