<?xml version="1.0" encoding="UTF-8" standalone="no"?>
<!-- Created with Inkscape (http://www.inkscape.org/) -->

<svg
   xmlns:dc="http://purl.org/dc/elements/1.1/"
   xmlns:cc="http://creativecommons.org/ns#"
   xmlns:rdf="http://www.w3.org/1999/02/22-rdf-syntax-ns#"
   xmlns:svg="http://www.w3.org/2000/svg"
   xmlns="http://www.w3.org/2000/svg"
   xmlns:sodipodi="http://sodipodi.sourceforge.net/DTD/sodipodi-0.dtd"
   xmlns:inkscape="http://www.inkscape.org/namespaces/inkscape"
   sodipodi:docname="7.svg"
   inkscape:version="0.91 r13725"
   version="1.1"
   id="svg2"
   viewBox="0 0 1263.1231 34.216762"
   height="9.6567307mm"
   width="356.48141mm">
  <sodipodi:namedview
     inkscape:window-maximized="1"
     inkscape:window-y="-8"
     inkscape:window-x="-8"
     inkscape:window-height="706"
     inkscape:window-width="1366"
     showgrid="false"
     inkscape:current-layer="svg2"
     inkscape:document-units="px"
     inkscape:cy="21.608381"
     inkscape:cx="633.41603"
     inkscape:zoom="0.175"
     inkscape:pageshadow="2"
     inkscape:pageopacity="0.0"
     borderopacity="1.0"
     bordercolor="#666666"
     pagecolor="#ffffff"
     id="base"
     fit-margin-top="0"
     fit-margin-left="0"
     fit-margin-right="0"
     fit-margin-bottom="0" />
  <defs
     id="defs4" />
  <metadata
     id="metadata7">
    <rdf:RDF>
      <cc:Work
         rdf:about="">
        <dc:format>image/svg+xml</dc:format>
        <dc:type
           rdf:resource="http://purl.org/dc/dcmitype/StillImage" />
        <dc:title></dc:title>
      </cc:Work>
    </rdf:RDF>
  </metadata>
  <g
     id="layer1"
     inkscape:groupmode="layer"
     inkscape:label="Layer 1"
     transform="translate(71.000005,-1018.1454)" />
  <g
     id="g4769"
     transform="translate(0.41602515,12.608356)"
     inkscape:label="Hershey Text">
    <path
       id="path4771"
       transform="translate(4,0)"
       d="m -4,4 2,-3 1,-2 0,2 2,3 1,2 0,2 -2,1 M -4,8 -2,9 2,9 4,8 5,7 7,4"
       style="fill:none;stroke:#000000"
       inkscape:connector-curvature="0" />
    <path
       id="path4773"
       transform="translate(17,0)"
       d="m -6,4 2,-4 -2,6 0,2 1,1 2,0 L -1,8 1,6 3,3 M 4,0 2,6 2,8 3,9 4,9 6,8 7,7 9,4"
       style="fill:none;stroke:#000000"
       inkscape:connector-curvature="0" />
    <path
       id="path4775"
       transform="translate(33,0)"
       d="m -7,4 2,-3 1,-2 -1,4 -6,18 M -5,3 -4,1 -2,0 0,0 2,1 3,3 3,5 2,7 1,8 -1,9 M -5,8 -3,9 0,9 3,8 5,7 8,4"
       style="fill:none;stroke:#000000"
       inkscape:connector-curvature="0" />
    <path
       id="path4777"
       transform="translate(45,0)"
       d="M -3,7 -1,6 0,5 1,3 1,1 0,0 -1,0 -3,1 -4,3 -4,6 -3,8 -1,9 1,9 3,8 4,7 6,4"
       style="fill:none;stroke:#000000"
       inkscape:connector-curvature="0" />
    <path
       id="path4779"
       transform="translate(56,0)"
       d="M -5,4 -3,1 -2,-1 -2,1 1,1 2,2 2,4 1,7 1,8 2,9 3,9 5,8 6,7 8,4"
       style="fill:none;stroke:#000000"
       inkscape:connector-curvature="0" />
    <path
       id="path4781"
       transform="translate(72,0)"
       d=""
       style="fill:none;stroke:#000000"
       inkscape:connector-curvature="0" />
    <path
       id="path4783"
       transform="translate(83,0)"
       d="m -3,4 2,-3 3,-5 1,-2 1,-3 0,-2 -1,-1 -2,1 -1,2 -1,4 -1,7 0,6 1,1 L 0,9 2,8 3,7 5,4"
       style="fill:none;stroke:#000000"
       inkscape:connector-curvature="0" />
    <path
       id="path4785"
       transform="translate(94,0)"
       d="m 0,0 -2,0 -2,1 -1,1 -1,2 0,2 1,2 2,1 2,0 L 1,8 2,7 3,5 3,3 2,1 0,0 -1,1 -1,3 0,5 2,6 5,6 7,5 8,4"
       style="fill:none;stroke:#000000"
       inkscape:connector-curvature="0" />
    <path
       id="path4787"
       transform="translate(108,0)"
       d="m -6,4 2,-4 -1,5 0,3 1,1 1,0 L 0,8 2,6 3,3 3,0 M 3,0 4,4 5,5 7,5 9,4"
       style="fill:none;stroke:#000000"
       inkscape:connector-curvature="0" />
    <path
       id="path4789"
       transform="translate(121,0)"
       d="M -3,7 -1,6 0,5 1,3 1,1 0,0 -1,0 -3,1 -4,3 -4,6 -3,8 -1,9 1,9 3,8 4,7 6,4"
       style="fill:none;stroke:#000000"
       inkscape:connector-curvature="0" />
    <path
       id="path4791"
       transform="translate(130,0)"
       d="m -3,4 2,-3 3,-5 1,-2 1,-3 0,-2 -1,-1 -2,1 -1,2 -1,4 -1,7 0,6 1,1 L 0,9 2,8 3,7 5,4"
       style="fill:none;stroke:#000000"
       inkscape:connector-curvature="0" />
    <path
       id="path4793"
       transform="translate(141,0)"
       d="m -6,4 2,-4 -2,6 0,2 1,1 2,0 2,-1 2,-2 2,-3 m 1,-3 -6,18 -1,2 -2,1 -1,-1 0,-2 1,-3 3,-3 L 1,10 3,9 6,7 9,4"
       style="fill:none;stroke:#000000"
       inkscape:connector-curvature="0" />
    <path
       id="path4795"
       transform="translate(158,0)"
       d=""
       style="fill:none;stroke:#000000"
       inkscape:connector-curvature="0" />
    <path
       id="path4797"
       transform="translate(179,0)"
       d="m -13,4 2,-3 2,-1 1,1 0,1 -1,4 -1,3 m 1,-3 1,-2 2,-3 2,-1 2,0 1,1 0,1 -1,4 -1,3 M -2,6 -1,4 1,1 3,0 5,0 6,1 6,3 5,6 5,8 6,9 7,9 9,8 10,7 12,4"
       style="fill:none;stroke:#000000"
       inkscape:connector-curvature="0" />
    <path
       id="path4799"
       transform="translate(195,0)"
       d="M -3,7 -1,6 0,5 1,3 1,1 0,0 -1,0 -3,1 -4,3 -4,6 -3,8 -1,9 1,9 3,8 4,7 6,4"
       style="fill:none;stroke:#000000"
       inkscape:connector-curvature="0" />
    <path
       id="path4801"
       transform="translate(205,0)"
       d="m -4,4 2,-3 1,-2 0,2 2,3 1,2 0,2 -2,1 M -4,8 -2,9 2,9 4,8 5,7 7,4"
       style="fill:none;stroke:#000000"
       inkscape:connector-curvature="0" />
    <path
       id="path4803"
       transform="translate(216,0)"
       d="m -4,4 2,-3 1,-2 0,2 2,3 1,2 0,2 -2,1 M -4,8 -2,9 2,9 4,8 5,7 7,4"
       style="fill:none;stroke:#000000"
       inkscape:connector-curvature="0" />
    <path
       id="path4805"
       transform="translate(229,0)"
       d="M 3,3 2,1 0,0 -2,0 -4,1 -5,2 -6,4 -6,6 -5,8 -3,9 -1,9 1,8 2,6 4,0 3,5 3,8 4,9 5,9 7,8 8,7 10,4"
       style="fill:none;stroke:#000000"
       inkscape:connector-curvature="0" />
    <path
       id="path4807"
       transform="translate(245,0)"
       d="M 3,3 2,1 0,0 l -2,0 -2,1 -1,1 -1,2 0,2 1,2 2,1 2,0 2,-1 1,-1 m 2,-7 -2,7 -4,11 -1,2 -2,1 -1,-1 0,-2 1,-3 3,-3 L 1,10 3,9 6,7 9,4"
       style="fill:none;stroke:#000000"
       inkscape:connector-curvature="0" />
    <path
       id="path4809"
       transform="translate(258,0)"
       d="M -3,7 -1,6 0,5 1,3 1,1 0,0 -1,0 -3,1 -4,3 -4,6 -3,8 -1,9 1,9 3,8 4,7 6,4"
       style="fill:none;stroke:#000000"
       inkscape:connector-curvature="0" />
    <path
       id="path4811"
       transform="translate(268,0)"
       d="m -4,4 2,-3 1,-2 0,2 2,3 1,2 0,2 -2,1 M -4,8 -2,9 2,9 4,8 5,7 7,4"
       style="fill:none;stroke:#000000"
       inkscape:connector-curvature="0" />
    <path
       id="path4813"
       transform="translate(280,0)"
       d="M 0,7 -1,8 0,9 1,8 0,7"
       style="fill:none;stroke:#000000"
       inkscape:connector-curvature="0" />
    <path
       id="path4815"
       transform="translate(293,0)"
       d=""
       style="fill:none;stroke:#000000"
       inkscape:connector-curvature="0" />
    <path
       id="path4817"
       transform="translate(311,0)"
       d="m 0,-6 -2,0 -2,-1 -1,-2 1,-2 3,-1 3,0 4,1 3,0 2,-1 M 6,-11 4,-4 2,2 0,6 -2,8 -4,9 -6,9 -8,8 -9,6 l 0,-2 1,-1 2,0 2,1"
       style="fill:none;stroke:#000000"
       inkscape:connector-curvature="0" />
    <path
       id="path4819"
       transform="translate(325,0)"
       d="m -5,4 2,-3 3,-5 1,-2 1,-3 0,-2 -1,-1 -2,1 -1,2 -1,4 -1,6 -1,8 M -5,9 -4,6 -3,4 -1,1 1,0 3,0 4,1 4,3 3,6 3,8 4,9 5,9 7,8 8,7 10,4"
       style="fill:none;stroke:#000000"
       inkscape:connector-curvature="0" />
    <path
       id="path4821"
       transform="translate(341,0)"
       d="m 0,0 -2,0 -2,1 -1,1 -1,2 0,2 1,2 2,1 2,0 L 1,8 2,7 3,5 3,3 2,1 0,0 -1,1 -1,3 0,5 2,6 5,6 7,5 8,4"
       style="fill:none;stroke:#000000"
       inkscape:connector-curvature="0" />
    <path
       id="path4823"
       transform="translate(355,0)"
       d="m -6,4 2,-4 -2,6 0,2 1,1 2,0 L -1,8 1,6 3,3 M 4,0 2,6 2,8 3,9 4,9 6,8 7,7 9,4"
       style="fill:none;stroke:#000000"
       inkscape:connector-curvature="0" />
    <path
       id="path4825"
       transform="translate(370,0)"
       d="M 3,3 2,1 0,0 l -2,0 -2,1 -1,1 -1,2 0,2 1,2 2,1 2,0 2,-1 1,-1 m 2,-7 -2,7 -4,11 -1,2 -2,1 -1,-1 0,-2 1,-3 3,-3 L 1,10 3,9 6,7 9,4"
       style="fill:none;stroke:#000000"
       inkscape:connector-curvature="0" />
    <path
       id="path4827"
       transform="translate(384,0)"
       d="m -5,4 2,-3 3,-5 1,-2 1,-3 0,-2 -1,-1 -2,1 -1,2 -1,4 -1,6 -1,8 M -5,9 -4,6 -3,4 -1,1 1,0 3,0 4,1 4,3 3,6 3,8 4,9 5,9 7,8 8,7 10,4"
       style="fill:none;stroke:#000000"
       inkscape:connector-curvature="0" />
    <path
       id="path4829"
       transform="translate(399,0)"
       d="m -2,9 -1,-1 1,-1 1,1 0,1 -1,2 -2,2"
       style="fill:none;stroke:#000000"
       inkscape:connector-curvature="0" />
    <path
       id="path4831"
       transform="translate(413,0)"
       d=""
       style="fill:none;stroke:#000000"
       inkscape:connector-curvature="0" />
    <path
       id="path4833"
       transform="translate(430,0)"
       d="M 5,4 3,2 1,-1 0,-3 l -1,-3 0,-3 1,-2 1,-1 2,0 1,1 1,2 0,3 -1,5 -2,5 -1,2 -2,2 -2,1 -2,0 -2,-1 -1,-2 0,-2 1,-1 2,0 2,1"
       style="fill:none;stroke:#000000"
       inkscape:connector-curvature="0" />
    <path
       id="path4835"
       transform="translate(446,0)"
       d=""
       style="fill:none;stroke:#000000"
       inkscape:connector-curvature="0" />
    <path
       id="path4837"
       transform="translate(459,0)"
       d="M -5,4 -3,1 -2,-1 -2,1 1,1 2,2 2,4 1,7 1,8 2,9 3,9 5,8 6,7 8,4"
       style="fill:none;stroke:#000000"
       inkscape:connector-curvature="0" />
    <path
       id="path4839"
       transform="translate(471,0)"
       d="M -3,7 -1,6 0,5 1,3 1,1 0,0 -1,0 -3,1 -4,3 -4,6 -3,8 -1,9 1,9 3,8 4,7 6,4"
       style="fill:none;stroke:#000000"
       inkscape:connector-curvature="0" />
    <path
       id="path4841"
       transform="translate(483,0)"
       d="M 3,3 2,1 0,0 -2,0 -4,1 -5,2 -6,4 -6,6 -5,8 -3,9 -1,9 1,8 2,6 4,0 3,5 3,8 4,9 5,9 7,8 8,7 10,4"
       style="fill:none;stroke:#000000"
       inkscape:connector-curvature="0" />
    <path
       id="path4843"
       transform="translate(499,0)"
       d="M 3,3 2,1 0,0 -2,0 -4,1 -5,2 -6,4 -6,6 -5,8 -3,9 -1,9 1,8 2,6 8,-12 M 4,0 3,5 3,8 4,9 5,9 7,8 8,7 10,4"
       style="fill:none;stroke:#000000"
       inkscape:connector-curvature="0" />
    <path
       id="path4845"
       transform="translate(517,0)"
       d=""
       style="fill:none;stroke:#000000"
       inkscape:connector-curvature="0" />
    <path
       id="path4847"
       transform="translate(528,0)"
       d="M -3,4 -1,1 1,-3 M 4,-12 -2,6 -2,8 -1,9 1,9 3,8 4,7 6,4 m -8,-8 7,0"
       style="fill:none;stroke:#000000"
       inkscape:connector-curvature="0" />
    <path
       id="path4849"
       transform="translate(539,0)"
       d="m -5,4 2,-3 3,-5 1,-2 1,-3 0,-2 -1,-1 -2,1 -1,2 -1,4 -1,6 -1,8 M -5,9 -4,6 -3,4 -1,1 1,0 3,0 4,1 4,3 3,6 3,8 4,9 5,9 7,8 8,7 10,4"
       style="fill:none;stroke:#000000"
       inkscape:connector-curvature="0" />
    <path
       id="path4851"
       transform="translate(553,0)"
       d="M -3,7 -1,6 0,5 1,3 1,1 0,0 -1,0 -3,1 -4,3 -4,6 -3,8 -1,9 1,9 3,8 4,7 6,4"
       style="fill:none;stroke:#000000"
       inkscape:connector-curvature="0" />
    <path
       id="path4853"
       transform="translate(572,0)"
       d="m -13,4 2,-3 2,-1 1,1 0,1 -1,4 -1,3 m 1,-3 1,-2 2,-3 2,-1 2,0 1,1 0,1 -1,4 -1,3 M -2,6 -1,4 1,1 3,0 5,0 6,1 6,3 5,6 5,8 6,9 7,9 9,8 10,7 12,4"
       style="fill:none;stroke:#000000"
       inkscape:connector-curvature="0" />
    <path
       id="path4855"
       transform="translate(592,0)"
       d=""
       style="fill:none;stroke:#000000"
       inkscape:connector-curvature="0" />
    <path
       id="path4857"
       transform="translate(602,0)"
       d="m 1,-5 0,1 1,0 0,-1 -1,0 M -2,4 0,0 -2,6 -2,8 -1,9 0,9 2,8 3,7 5,4"
       style="fill:none;stroke:#000000"
       inkscape:connector-curvature="0" />
    <path
       id="path4859"
       transform="translate(615,0)"
       d="m -8,4 2,-3 2,-1 1,1 0,1 -1,4 -1,3 M -4,6 -3,4 -1,1 1,0 3,0 4,1 4,3 3,6 3,8 4,9 5,9 7,8 8,7 10,4"
       style="fill:none;stroke:#000000"
       inkscape:connector-curvature="0" />
    <path
       id="path4861"
       transform="translate(633,0)"
       d=""
       style="fill:none;stroke:#000000"
       inkscape:connector-curvature="0" />
    <path
       id="path4863"
       transform="translate(646,0)"
       d="m -5,4 2,-3 3,-5 1,-2 1,-3 0,-2 -1,-1 -2,1 -1,2 -1,4 -1,7 0,6 1,1 1,0 L 0,8 2,6 3,3 3,0 4,4 5,5 7,5 9,4"
       style="fill:none;stroke:#000000"
       inkscape:connector-curvature="0" />
    <path
       id="path4865"
       transform="translate(661,0)"
       d="m -6,4 2,-4 -2,6 0,2 1,1 2,0 L -1,8 1,6 3,3 M 4,0 2,6 2,8 3,9 4,9 6,8 7,7 9,4"
       style="fill:none;stroke:#000000"
       inkscape:connector-curvature="0" />
    <path
       id="path4867"
       transform="translate(673,0)"
       d="m -3,4 2,-3 3,-5 1,-2 1,-3 0,-2 -1,-1 -2,1 -1,2 -1,4 -1,7 0,6 1,1 L 0,9 2,8 3,7 5,4"
       style="fill:none;stroke:#000000"
       inkscape:connector-curvature="0" />
    <path
       id="path4869"
       transform="translate(683,0)"
       d="m -5,4 2,-3 3,-5 1,-2 1,-3 0,-2 -1,-1 -2,1 -1,2 -1,4 -1,6 -1,8 M -5,9 -4,6 -3,4 -1,1 1,0 3,0 4,1 4,3 2,4 -1,4 M -1,4 1,5 2,8 3,9 4,9 6,8 7,7 9,4"
       style="fill:none;stroke:#000000"
       inkscape:connector-curvature="0" />
    <path
       id="path4871"
       transform="translate(700,0)"
       d=""
       style="fill:none;stroke:#000000"
       inkscape:connector-curvature="0" />
    <path
       id="path4873"
       transform="translate(714,0)"
       d="m 0,0 -2,0 -2,1 -1,1 -1,2 0,2 1,2 2,1 2,0 L 1,8 2,7 3,5 3,3 2,1 0,0 -1,1 -1,3 0,5 2,6 5,6 7,5 8,4"
       style="fill:none;stroke:#000000"
       inkscape:connector-curvature="0" />
    <path
       id="path4875"
       transform="translate(730,0)"
       d="m -8,4 2,-3 2,-1 1,1 0,1 -1,4 -1,3 M -4,6 -3,4 -1,1 1,0 3,0 4,1 4,3 3,6 3,8 4,9 5,9 7,8 8,7 10,4"
       style="fill:none;stroke:#000000"
       inkscape:connector-curvature="0" />
    <path
       id="path4877"
       transform="translate(748,0)"
       d=""
       style="fill:none;stroke:#000000"
       inkscape:connector-curvature="0" />
    <path
       id="path4879"
       transform="translate(759,0)"
       d="M -3,4 -1,1 1,-3 M 4,-12 -2,6 -2,8 -1,9 1,9 3,8 4,7 6,4 m -8,-8 7,0"
       style="fill:none;stroke:#000000"
       inkscape:connector-curvature="0" />
    <path
       id="path4881"
       transform="translate(770,0)"
       d="m -5,4 2,-3 3,-5 1,-2 1,-3 0,-2 -1,-1 -2,1 -1,2 -1,4 -1,6 -1,8 M -5,9 -4,6 -3,4 -1,1 1,0 3,0 4,1 4,3 3,6 3,8 4,9 5,9 7,8 8,7 10,4"
       style="fill:none;stroke:#000000"
       inkscape:connector-curvature="0" />
    <path
       id="path4883"
       transform="translate(784,0)"
       d="M -3,7 -1,6 0,5 1,3 1,1 0,0 -1,0 -3,1 -4,3 -4,6 -3,8 -1,9 1,9 3,8 4,7 6,4"
       style="fill:none;stroke:#000000"
       inkscape:connector-curvature="0" />
    <path
       id="path4885"
       transform="translate(798,0)"
       d=""
       style="fill:none;stroke:#000000"
       inkscape:connector-curvature="0" />
    <path
       id="path4887"
       transform="translate(811,0)"
       d="M 2,2 2,1 1,0 -1,0 -3,1 -4,2 -5,4 -5,6 -4,8 -2,9 1,9 4,7 6,4"
       style="fill:none;stroke:#000000"
       inkscape:connector-curvature="0" />
    <path
       id="path4889"
       transform="translate(823,0)"
       d="m 0,0 -2,0 -2,1 -1,1 -1,2 0,2 1,2 2,1 2,0 L 1,8 2,7 3,5 3,3 2,1 0,0 -1,1 -1,3 0,5 2,6 5,6 7,5 8,4"
       style="fill:none;stroke:#000000"
       inkscape:connector-curvature="0" />
    <path
       id="path4891"
       transform="translate(844,0)"
       d="m -13,4 2,-3 2,-1 1,1 0,1 -1,4 -1,3 m 1,-3 1,-2 2,-3 2,-1 2,0 1,1 0,1 -1,4 -1,3 M -2,6 -1,4 1,1 3,0 5,0 6,1 6,3 5,6 5,8 6,9 7,9 9,8 10,7 12,4"
       style="fill:none;stroke:#000000"
       inkscape:connector-curvature="0" />
    <path
       id="path4893"
       transform="translate(858,0)"
       d="m 1,-5 0,1 1,0 0,-1 -1,0 M -2,4 0,0 -2,6 -2,8 -1,9 0,9 2,8 3,7 5,4"
       style="fill:none;stroke:#000000"
       inkscape:connector-curvature="0" />
    <path
       id="path4895"
       transform="translate(871,0)"
       d="m -8,4 2,-3 2,-1 1,1 0,1 -1,4 -1,3 M -4,6 -3,4 -1,1 1,0 3,0 4,1 4,3 3,6 3,8 4,9 5,9 7,8 8,7 10,4"
       style="fill:none;stroke:#000000"
       inkscape:connector-curvature="0" />
    <path
       id="path4897"
       transform="translate(887,0)"
       d="M 3,3 2,1 0,0 l -2,0 -2,1 -1,1 -1,2 0,2 1,2 2,1 2,0 2,-1 1,-1 m 2,-7 -2,7 -4,11 -1,2 -2,1 -1,-1 0,-2 1,-3 3,-3 L 1,10 3,9 6,7 9,4"
       style="fill:none;stroke:#000000"
       inkscape:connector-curvature="0" />
    <path
       id="path4899"
       transform="translate(904,0)"
       d=""
       style="fill:none;stroke:#000000"
       inkscape:connector-curvature="0" />
    <path
       id="path4901"
       transform="translate(918,0)"
       d="M 3,3 2,1 0,0 -2,0 -4,1 -5,2 -6,4 -6,6 -5,8 -3,9 -1,9 1,8 2,6 8,-12 M 4,0 3,5 3,8 4,9 5,9 7,8 8,7 10,4"
       style="fill:none;stroke:#000000"
       inkscape:connector-curvature="0" />
    <path
       id="path4903"
       transform="translate(934,0)"
       d="M 3,3 2,1 0,0 -2,0 -4,1 -5,2 -6,4 -6,6 -5,8 -3,9 -1,9 1,8 2,6 4,0 3,5 3,8 4,9 5,9 7,8 8,7 10,4"
       style="fill:none;stroke:#000000"
       inkscape:connector-curvature="0" />
    <path
       id="path4905"
       transform="translate(950,0)"
       d="m -6,4 2,-4 -2,6 0,2 1,1 2,0 2,-1 2,-2 2,-3 m 1,-3 -6,18 -1,2 -2,1 -1,-1 0,-2 1,-3 3,-3 L 1,10 3,9 6,7 9,4"
       style="fill:none;stroke:#000000"
       inkscape:connector-curvature="0" />
    <path
       id="path4907"
       transform="translate(963,0)"
       d="m -4,4 2,-3 1,-2 0,2 2,3 1,2 0,2 -2,1 M -4,8 -2,9 2,9 4,8 5,7 7,4"
       style="fill:none;stroke:#000000"
       inkscape:connector-curvature="0" />
    <path
       id="path4909"
       transform="translate(975,0)"
       d="M 0,7 -1,8 0,9 1,8 0,7"
       style="fill:none;stroke:#000000"
       inkscape:connector-curvature="0" />
    <path
       id="path4911"
       transform="translate(988,0)"
       d=""
       style="fill:none;stroke:#000000"
       inkscape:connector-curvature="0" />
    <path
       id="path4913"
       transform="translate(1005,0)"
       d="M 5,4 3,2 1,-1 0,-3 l -1,-3 0,-3 1,-2 1,-1 2,0 1,1 1,2 0,3 -1,5 -2,5 -1,2 -2,2 -2,1 -2,0 -2,-1 -1,-2 0,-2 1,-1 2,0 2,1"
       style="fill:none;stroke:#000000"
       inkscape:connector-curvature="0" />
    <path
       id="path4915"
       transform="translate(1021,0)"
       d=""
       style="fill:none;stroke:#000000"
       inkscape:connector-curvature="0" />
    <path
       id="path4917"
       transform="translate(1034,0)"
       d="m -5,4 2,-3 3,-5 1,-2 1,-3 0,-2 -1,-1 -2,1 -1,2 -1,4 -1,6 -1,8 M -5,9 -4,6 -3,4 -1,1 1,0 3,0 4,1 4,3 3,6 3,8 4,9 5,9 7,8 8,7 10,4"
       style="fill:none;stroke:#000000"
       inkscape:connector-curvature="0" />
    <path
       id="path4919"
       transform="translate(1050,0)"
       d="m 0,0 -2,0 -2,1 -1,1 -1,2 0,2 1,2 2,1 2,0 L 1,8 2,7 3,5 3,3 2,1 0,0 -1,1 -1,3 0,5 2,6 5,6 7,5 8,4"
       style="fill:none;stroke:#000000"
       inkscape:connector-curvature="0" />
    <path
       id="path4921"
       transform="translate(1065,0)"
       d="m -7,4 2,-3 1,-2 -1,4 -6,18 M -5,3 -4,1 -2,0 0,0 2,1 3,3 3,5 2,7 1,8 -1,9 M -5,8 -3,9 0,9 3,8 5,7 8,4"
       style="fill:none;stroke:#000000"
       inkscape:connector-curvature="0" />
    <path
       id="path4923"
       transform="translate(1077,0)"
       d="M -3,7 -1,6 0,5 1,3 1,1 0,0 -1,0 -3,1 -4,3 -4,6 -3,8 -1,9 1,9 3,8 4,7 6,4"
       style="fill:none;stroke:#000000"
       inkscape:connector-curvature="0" />
    <path
       id="path4925"
       transform="translate(1091,0)"
       d=""
       style="fill:none;stroke:#000000"
       inkscape:connector-curvature="0" />
    <path
       id="path4927"
       transform="translate(1105,0)"
       d="m -6,4 2,-4 -2,6 0,2 1,1 2,0 2,-1 2,-2 2,-3 m 1,-3 -6,18 -1,2 -2,1 -1,-1 0,-2 1,-3 3,-3 L 1,10 3,9 6,7 9,4"
       style="fill:none;stroke:#000000"
       inkscape:connector-curvature="0" />
    <path
       id="path4929"
       transform="translate(1120,0)"
       d="m 0,0 -2,0 -2,1 -1,1 -1,2 0,2 1,2 2,1 2,0 L 1,8 2,7 3,5 3,3 2,1 0,0 -1,1 -1,3 0,5 2,6 5,6 7,5 8,4"
       style="fill:none;stroke:#000000"
       inkscape:connector-curvature="0" />
    <path
       id="path4931"
       transform="translate(1134,0)"
       d="m -6,4 2,-4 -2,6 0,2 1,1 2,0 L -1,8 1,6 3,3 M 4,0 2,6 2,8 3,9 4,9 6,8 7,7 9,4"
       style="fill:none;stroke:#000000"
       inkscape:connector-curvature="0" />
    <path
       id="path4933"
       transform="translate(1151,0)"
       d=""
       style="fill:none;stroke:#000000"
       inkscape:connector-curvature="0" />
    <path
       id="path4935"
       transform="translate(1162,0)"
       d="m -3,4 2,-3 3,-5 1,-2 1,-3 0,-2 -1,-1 -2,1 -1,2 -1,4 -1,7 0,6 1,1 L 0,9 2,8 3,7 5,4"
       style="fill:none;stroke:#000000"
       inkscape:connector-curvature="0" />
    <path
       id="path4937"
       transform="translate(1169,0)"
       d="m 1,-5 0,1 1,0 0,-1 -1,0 M -2,4 0,0 -2,6 -2,8 -1,9 0,9 2,8 3,7 5,4"
       style="fill:none;stroke:#000000"
       inkscape:connector-curvature="0" />
    <path
       id="path4939"
       transform="translate(1179,0)"
       d="m -5,4 2,-3 3,-5 1,-2 1,-3 0,-2 -1,-1 -2,1 -1,2 -1,4 -1,6 -1,8 M -5,9 -4,6 -3,4 -1,1 1,0 3,0 4,1 4,3 2,4 -1,4 M -1,4 1,5 2,8 3,9 4,9 6,8 7,7 9,4"
       style="fill:none;stroke:#000000"
       inkscape:connector-curvature="0" />
    <path
       id="path4941"
       transform="translate(1192,0)"
       d="M -3,7 -1,6 0,5 1,3 1,1 0,0 -1,0 -3,1 -4,3 -4,6 -3,8 -1,9 1,9 3,8 4,7 6,4"
       style="fill:none;stroke:#000000"
       inkscape:connector-curvature="0" />
    <path
       id="path4943"
       transform="translate(1206,0)"
       d=""
       style="fill:none;stroke:#000000"
       inkscape:connector-curvature="0" />
    <path
       id="path4945"
       transform="translate(1217,0)"
       d="M -3,4 -1,1 1,-3 M 4,-12 -2,6 -2,8 -1,9 1,9 3,8 4,7 6,4 m -8,-8 7,0"
       style="fill:none;stroke:#000000"
       inkscape:connector-curvature="0" />
    <path
       id="path4947"
       transform="translate(1228,0)"
       d="m -5,4 2,-3 3,-5 1,-2 1,-3 0,-2 -1,-1 -2,1 -1,2 -1,4 -1,6 -1,8 M -5,9 -4,6 -3,4 -1,1 1,0 3,0 4,1 4,3 3,6 3,8 4,9 5,9 7,8 8,7 10,4"
       style="fill:none;stroke:#000000"
       inkscape:connector-curvature="0" />
    <path
       id="path4949"
       transform="translate(1240,0)"
       d="m 1,-5 0,1 1,0 0,-1 -1,0 M -2,4 0,0 -2,6 -2,8 -1,9 0,9 2,8 3,7 5,4"
       style="fill:none;stroke:#000000"
       inkscape:connector-curvature="0" />
    <path
       id="path4951"
       transform="translate(1249,0)"
       d="m -4,4 2,-3 1,-2 0,2 2,3 1,2 0,2 -2,1 M -4,8 -2,9 2,9 4,8 5,7 7,4"
       style="fill:none;stroke:#000000"
       inkscape:connector-curvature="0" />
    <path
       id="path4953"
       transform="translate(1261,0)"
       d="M 0,7 -1,8 0,9 1,8 0,7"
       style="fill:none;stroke:#000000"
       inkscape:connector-curvature="0" />
  </g>
</svg>
