<?xml version="1.0" encoding="UTF-8" standalone="no"?>
<!-- Created with Inkscape (http://www.inkscape.org/) -->

<svg
   xmlns:dc="http://purl.org/dc/elements/1.1/"
   xmlns:cc="http://creativecommons.org/ns#"
   xmlns:rdf="http://www.w3.org/1999/02/22-rdf-syntax-ns#"
   xmlns:svg="http://www.w3.org/2000/svg"
   xmlns="http://www.w3.org/2000/svg"
   xmlns:sodipodi="http://sodipodi.sourceforge.net/DTD/sodipodi-0.dtd"
   xmlns:inkscape="http://www.inkscape.org/namespaces/inkscape"
   sodipodi:docname="b1.svg"
   inkscape:version="0.91 r13725"
   version="1.1"
   id="svg2"
   viewBox="0 0 182.91602 34.108379"
   height="9.6261425mm"
   width="51.622967mm">
  <sodipodi:namedview
     inkscape:window-maximized="1"
     inkscape:window-y="1"
     inkscape:window-x="0"
     inkscape:window-height="695"
     inkscape:window-width="1280"
     showgrid="false"
     inkscape:current-layer="svg2"
     inkscape:document-units="px"
     inkscape:cy="9.4433596"
     inkscape:cx="80.993489"
     inkscape:zoom="4.8181685"
     inkscape:pageshadow="2"
     inkscape:pageopacity="0.0"
     borderopacity="1.0"
     bordercolor="#666666"
     pagecolor="#ffffff"
     id="base"
     fit-margin-top="0"
     fit-margin-left="0"
     fit-margin-right="0"
     fit-margin-bottom="0" />
  <defs
     id="defs4" />
  <metadata
     id="metadata7">
    <rdf:RDF>
      <cc:Work
         rdf:about="">
        <dc:format>image/svg+xml</dc:format>
        <dc:type
           rdf:resource="http://purl.org/dc/dcmitype/StillImage" />
        <dc:title></dc:title>
      </cc:Work>
    </rdf:RDF>
  </metadata>
  <g
     id="layer1"
     inkscape:groupmode="layer"
     inkscape:label="Layer 1"
     transform="translate(-218.26138,-530.47224)" />
  <g
     id="g3506"
     transform="translate(-0.5,12.499995)"
     inkscape:label="Hershey Text">
    <path
       style="fill:none;stroke:#000000"
       d="M 15,-11 C 12.196038,-7.8239462 11.334058,-3.3646928 9.8231966,0.53041026 8.7205028,3.6593013 7.3638017,7.7560592 4,9 M 14,-10 C 11.87575,-4.707646 11.78145,1.3754746 8.7368588,6.2631412 7.1898241,8.293395 4.1107212,9.5699798 1.736859,8.7368588 -0.241555,7.2022368 1.590183,4.0408555 4,5 6.9060318,5.8972257 8.4021738,9.7464662 11.86069,9 15.891824,8.9545418 18.063775,4.6205933 19.145964,1.2701775 20.187448,-2.7589551 20.998307,-8.0188302 17.158011,-10.841989 14.961788,-12.600156 11.8682,-12.075807 9.2939179,-11.764639 6.2426341,-11.208072 3.5275308,-8.2027173 4,-5 5.508016,-2.7423357 8.4249085,-4.3892651 8.8321257,-6.6642514 L 8.9985508,-6.9971016 9,-7"
       id="path3508"
       inkscape:connector-curvature="0" />
    <path
       style="fill:none;stroke:#000000"
       d="M 26,7 C 28.551216,6.2738711 30.878731,3.290781 29.736859,0.73685876 28.009846,-1.1938737 24.965021,1.3943306 24.334299,3.3314011 22.908127,6.0269637 25.401158,9.633071 28.488552,9 31.391658,9.2050306 33.524106,6.5090817 34.857825,4.2132628 L 35,4 M 28,0 c -2.201006,1.6711463 -3.54145,4.2064822 -3,7 0.666667,0.6666667 1.333333,1.3333333 2,2"
       id="path3510"
       inkscape:connector-curvature="0" />
    <path
       style="fill:none;stroke:#000000"
       d="M 45,3 C 44.269066,-0.43098875 39.571534,-0.94728497 37.473717,1.5262825 35.043198,3.640446 35.611964,8.27617 39,9 41.268116,9.3092218 43.401339,8.3402537 44,6 M 40,0 c -2.201006,1.6711463 -3.54145,4.2064822 -3,7 0.666667,0.6666667 1.333333,1.3333333 2,2 M 46,0 C 45.31274,2.6633248 43.738572,5.1827243 44,8 45.752982,9.740859 48.034373,8.3891757 49.206425,6.6903625 49.804283,5.793575 50.402142,4.8967875 51,4 M 47,0 C 46.434556,2.7003325 44.295885,5.569103 45.263141,8.2631412 45.508761,8.5087608 45.75438,8.7543804 46,9"
       id="path3512"
       inkscape:connector-curvature="0" />
    <path
       style="fill:none;stroke:#000000"
       d="M 51,4 C 52.068465,2.4484587 53.439414,-0.53217022 55.6657,0.33285027 58.32039,0.94189176 56.513126,4.127984 56.058557,5.8243282 55.705705,6.8828855 55.352852,7.9414427 55,9 M 55,0 C 57.46601,2.0904219 54.826196,5.4191651 54.352475,7.9425744 54.234983,8.2950496 54.117492,8.6475248 54,9 M 57,3 C 58.066024,1.7463828 60.78983,-0.80002994 61.88232,0.35304103 61.588213,1.2353607 61.294107,2.1176803 61,3 m 0,-3 c -0.02813,1.6513316 -0.341198,5.133757 2,5 0.666667,-0.3333333 1.333333,-0.6666667 2,-1"
       id="path3514"
       inkscape:connector-curvature="0" />
    <path
       style="fill:none;stroke:#000000"
       d=""
       id="path3516"
       inkscape:connector-curvature="0" />
    <path
       style="fill:none;stroke:#000000"
       d="M 96,-11 C 93.196038,-7.8239462 92.334058,-3.3646928 90.823197,0.53041026 89.720503,3.6593013 88.363802,7.7560592 85,9 m 10,-19 c -2.12425,5.292354 -2.21855,11.3754746 -5.263141,16.2631412 -1.547035,2.0302538 -4.626138,3.3068386 -7,2.4737176 -2.736053,-1.4933799 1.563365,-5.4359383 0.736858,-2.2105763 L 83.210576,6.7894237 83,7 m 7,-13 c -0.462742,1.9725576 -2.683089,4.233616 -4.526282,2.4737175 -1.649627,-2.5701453 1.173506,-5.812838 3.524833,-6.9729925 3.125674,-1.825823 6.90191,-1.712526 10.334299,-1.3343 3.59469,0.843135 3.5887,6.819916 0.0029,7.6657007 C 97.30251,-3.5344229 95.162605,-2.8091695 93,-3 m 6,-9 c 2.67631,2.1059655 2.67434,5.88322 0,8 m -4,1 c 2.593686,0.3686483 5.21897,2.25649009 5,5.1164137 C 100.37057,5.2599527 98.488606,9.239676 94.883586,9 91.560286,9.0844783 93.402338,4.7128806 94,3 m 1,-6 c 3.599862,0.9543903 4.975876,5.2170711 3.529279,8.4121641 C 98.325442,7.0407996 97.067569,7.9025036 96,9"
       id="path3518"
       inkscape:connector-curvature="0" />
    <path
       style="fill:none;stroke:#000000"
       d="m 105,4 c 1.61135,-2.1832495 2.83795,-4.55532479 4,-7 m 3,-9 c -2.33333,7 -4.66667,14 -7,21 m 8,-21 c -2.33333,7 -4.66667,14 -7,21 m 2,-6 c 1.5845,-1.8713847 4.27336,-4.2260827 6.66425,-2.16787432 C 115.98588,2.7646702 113.53764,5.2539635 114,7.4885517 113.78828,8.2131577 114.66053,8.4998891 115,9 m -2,-9 c 2.66525,2.1123723 -0.68681,5.2960979 0,8 1.75298,1.740859 4.03437,0.3891757 5.20642,-1.3096375 C 118.80428,5.793575 119.40214,4.8967875 120,4"
       id="path3520"
       inkscape:connector-curvature="0" />
    <path
       style="fill:none;stroke:#000000"
       d="M 130,3 C 129.26907,-0.43098875 124.57153,-0.94728497 122.47372,1.5262825 120.0432,3.640446 120.61196,8.27617 124,9 c 2.26812,0.3092218 4.40134,-0.6597463 5,-3 m -4,-6 c -2.20101,1.6711463 -3.54145,4.2064822 -3,7 0.66667,0.6666667 1.33333,1.3333333 2,2 m 7,-9 c -0.68726,2.6633248 -2.26143,5.1827243 -2,8 1.75298,1.740859 4.03437,0.3891757 5.20642,-1.3096375 C 134.80428,5.793575 135.40214,4.8967875 136,4 m -4,-4 c -0.56544,2.7003325 -2.70412,5.569103 -1.73686,8.2631412 C 130.50876,8.5087608 130.75438,8.7543804 131,9"
       id="path3522"
       inkscape:connector-curvature="0" />
    <path
       style="fill:none;stroke:#000000"
       d="m 139,0 c -1.35095,2.4512773 -2.34133,5.1647965 -2,8 2.38381,1.9527333 5.85732,0.5767037 7.57885,-1.5788475 C 145.93983,4.6499994 146.13204,2.1871777 146,0 m -6,0 c -1.2786,2.4809967 -2.70039,5.5636767 -1.73686,8.2631412 C 138.50876,8.5087608 138.75438,8.7543804 139,9 m 7,-9 c 0.62334,1.7706845 0.52658,5.7507941 3.33285,4.8335749 C 149.88857,4.5557166 150.44428,4.2778583 151,4"
       id="path3524"
       inkscape:connector-curvature="0" />
    <path
       style="fill:none;stroke:#000000"
       d="m 154,0 c -0.68726,2.6633248 -2.26143,5.1827243 -2,8 2.06584,1.8911536 4.83253,0.6269754 6.31571,-1.3157062 C 159.44703,5.6527901 160.0971,4.2198812 161,3 m -6,-3 c -0.56544,2.7003325 -2.70412,5.569103 -1.73686,8.2631412 C 153.50876,8.5087608 153.75438,8.7543804 154,9 m 8,-9 c -2,6 -4,12 -6,18 m 7,-18 c -2.18552,6.851247 -4.49378,13.691288 -8,20 -2.15239,2.282579 -3.86443,-0.592443 -2.76464,-2.706082 1.13897,-5.025355 6.87185,-6.421049 10.69355,-8.9131929 C 164.89124,7.4860843 165.89477,5.7471777 167,4"
       id="path3526"
       inkscape:connector-curvature="0" />
    <path
       style="fill:none;stroke:#000000"
       d="M 177,3 C 176.26907,-0.43098875 171.57153,-0.94728497 169.47372,1.5262825 167.0432,3.640446 167.61196,8.27617 171,9 c 2.26812,0.3092218 4.40134,-0.6597463 5,-3 m -4,-6 c -2.20101,1.6711463 -3.54145,4.2064822 -3,7 0.66667,0.6666667 1.33333,1.3333333 2,2 m 7,-9 c -0.68726,2.6633248 -2.26143,5.1827243 -2,8 1.75298,1.740859 4.03437,0.3891757 5.20642,-1.3096375 C 181.80428,5.793575 182.40214,4.8967875 183,4 m -4,-4 c -0.56544,2.7003325 -2.70412,5.569103 -1.73686,8.2631412 C 177.50876,8.5087608 177.75438,8.7543804 178,9"
       id="path3528"
       inkscape:connector-curvature="0" />
  </g>
</svg>
