<?xml version="1.0" encoding="UTF-8" standalone="no"?>
<!-- Created with Inkscape (http://www.inkscape.org/) -->
<svg id="svg2" xmlns:rdf="http://www.w3.org/1999/02/22-rdf-syntax-ns#" xmlns="http://www.w3.org/2000/svg" height="9.5652mm" width="51.982mm" version="1.1" xmlns:cc="http://creativecommons.org/ns#" xmlns:dc="http://purl.org/dc/elements/1.1/" viewBox="0 0 184.18876 33.892437">
 <metadata id="metadata7">
  <rdf:RDF>
   <cc:Work rdf:about="">
    <dc:format>image/svg+xml</dc:format>
    <dc:type rdf:resource="http://purl.org/dc/dcmitype/StillImage"/>
    <dc:title/>
   </cc:Work>
  </rdf:RDF>
 </metadata>
 <g id="g3927" stroke="#000" fill="none" transform="translate(1.5847 12.583)">
  <path id="path3929" d="m13-12c-3.5662 1.067-3.4564 5.4506-4.2461 8.4769-0.6457 4.7272-1.6482 10.678-6.7539 12.523-2.4503 1.0061-4.2559-2.3263-2.206-3.7939 2.5992-1.1289 4.741 1.4713 6.5611 2.9124 4.0399 1.9996 9.8859 0.8011 11.482-3.7924 1.9247-3.7189 2.7272-8.2972 1.8079-12.391-0.31907-3.2099-4.2735-4.7529-6.9096-3.67-2.2588 1.2574-2.0139 3.8248-1.0251 5.8659 1.615 4.1573 5.318 7.064 9.29 8.869"/>
  <path id="path3931" d="m24 7c2.547-0.7336 4.868-3.7128 3.735-6.2647-1.759-2.0357-4.975 0.7854-4.735 3.0133-0.639 2.7801 1.514 5.766 4.497 5.2514 2.77-0.2602 4.126-2.9171 5.503-5"/>
  <path id="path3933" d="m42 3c-0.871-3.865-6.436-3.8673-8.167-0.6652-2.238 2.7243 0.039 7.3516 3.664 6.6652 3.858-0.3866 3.877-5.132 5.16-7.9714 0.794-2.0839-0.803 3.4281-0.657 4.72-0.898 2.5366 1.7 4.3514 3.674 2.4144 1.546-0.9395 2.265-2.7617 3.326-4.163"/>
  <path id="path3935" d="m49 4c1.107-0.8622 3.081-6.153 3-3.8771-0.12 2.0232 4.882-0.39656 4 3 0.28 1.9987-2.352 4.4261 0 5.8771 2.998 0.1356 4.589-2.8235 6-5"/>
  <path id="path3939" d="m91-10c2.2355 2.0137 0.43676 5.4703 0 8-1.328 4.3443-3.621 9.1043-8 11-2.877 0.1869-2.039-3.6081-1.706-5.4682 0.892-5.6101 3.241-11.991 8.706-14.532 2.724-1.1789 7.2936-2.0986 8.6696 1.3392 1.5322 3.4028-1.8758 6.5881-5.09 7.1343-0.527 0.1755-1.053 0.351-1.58 0.5265m-1 0c3.074-0.14811 6.4419 2.1235 6 5.4972 0.53347 4.4268-5.263 7.1449-8.674 4.6658-0.734-0.3843-0.855-1.5045-1.326-2.163"/>
  <path id="path3941" d="m101 4c2.677-4.4663 6.4887-8.7871 7-14.123 0.0637-3.2184-3.8362-1.0166-4 1.1229-1.64 5.8758-2.2304 11.967-3 18 1.018-3.0753 2.2155-6.7046 5.0044-8.5022 1.94-1.4562 4.87-0.08366 4 2.5022-0.59 1.8246-2.24 5.2045 0.37 6 2.84-0.1586 4.24-2.895 5.63-5"/>
  <path id="path3943" d="m125 3c-0.87104-3.865-6.4357-3.8673-8.1674-0.66521-2.2377 2.7243 0.0392 7.3516 3.6646 6.6652 3.8577-0.38658 3.8763-5.132 5.1599-7.9714 0.79339-2.0839-0.80282 3.4281-0.65714 4.72-0.89762 2.5366 1.7002 4.351 3.674 2.4144 1.55-0.9395 2.27-2.7617 3.33-4.163"/>
  <path id="path3945" d="m132 4c1.0348-2.049 2.6424-5.7677 1.4861-1.4307-0.24 2.0555-1.47 4.9626 0.51 6.4307 3.23 0.0567 6.37-2.1746 6.83-5.4857 0.38-1.1055 0.07-2.3596 0.17-3.5143 0.63574 1.936 0.51479 5.6273 3.4972 5 0.91144 0.079921 1.6718-0.71495 2.5028-1"/>
  <path id="path3947" d="m147 4c1.0306-2.0502 2.741-5.7416 1.1714-1.5143-0.51 2.0439-2.39 4.9298-0.17 6.5143 3.864 0.60231 6.2038-3.2125 8-6m1-3c-2.407 6.6362-4.1137 13.562-7 20-2.3712 2.3489-3.8958-0.95162-2.6449-3.0653 1.0366-3.6935 4.8034-5.846 7.9841-7.6043 2.6-1.3012 4.7-3.2121 6.66-5.3307"/>
  <path id="path3949" d="m171 3c-0.87104-3.865-6.4357-3.8673-8.1674-0.66521-2.2377 2.7243 0.0392 7.3516 3.6646 6.6652 3.8577-0.38658 3.8763-5.132 5.1599-7.9714 0.79339-2.0839-0.80282 3.4281-0.65714 4.72-0.89762 2.5366 1.7002 4.351 3.674 2.4144 1.55-0.9395 2.27-2.7617 3.33-4.163"/>
  <path id="path3951" d="m181 9c-2.4987-2.9726 3.0628-1.2175 0.33042 1.3392-0.46 1.104-1.57 1.77-2.33 2.661"/>
 </g>
</svg>
