<?xml version="1.0" encoding="UTF-8" standalone="no"?>
<svg id="svg2" xmlns:rdf="http://www.w3.org/1999/02/22-rdf-syntax-ns#" xmlns="http://www.w3.org/2000/svg" viewBox="0 0 564.83205 34.216762" height="9.6567mm" width="159.41mm" version="1.1" xmlns:cc="http://creativecommons.org/ns#" xmlns:dc="http://purl.org/dc/elements/1.1/">
 <g id="g5593" stroke="#000" fill="none" transform="translate(.41603 12.608)">
  <path id="path5595" d="m-4 4 2-3 1-2v2l2 3 1 2v2l-2 1m-4-1 2 1h4l2-1 1-1 2-3" transform="translate(4)"/>
  <path id="path5597" d="m-3 4 2-3 2-4m3-9-6 18v2l1 1h2l2-1 1-1 2-3m-8-8h7" transform="translate(14)"/>
  <path id="path5599" d="m1-5v1h1v-1h-1m-3 9 2-4-2 6v2l1 1h1l2-1 1-1 2-3" transform="translate(22)"/>
  <path id="path5601" d="m-3 4 2-3 3-5 1-2 1-3v-2l-1-1-2 1-1 2-1 4-1 7v6l1 1h1l2-1 1-1 2-3" transform="translate(30)"/>
  <path id="path5603" d="m-3 4 2-3 3-5 1-2 1-3v-2l-1-1-2 1-1 2-1 4-1 7v6l1 1h1l2-1 1-1 2-3" transform="translate(38)"/>
  <path id="path5607" d="m-5 4 2-3 3-5 1-2 1-3v-2l-1-1-2 1-1 2-1 4-1 6-1 8 1-3 1-2 2-3 2-1h2l1 1v2l-2 1h-3l2 1 1 3 1 1h1l2-1 1-1 2-3" transform="translate(64)"/>
  <path id="path5609" d="m-3 7 2-1 1-1 1-2v-2l-1-1h-1l-2 1-1 2v3l1 2 2 1h2l2-1 1-1 2-3" transform="translate(77)"/>
  <path id="path5611" d="m-7 4 2-3 1-2-1 4-6 18m6-18 1-2 2-1h2l2 1 1 2v2l-1 2-1 1-2 1m-4-1 2 1h3l3-1 2-1 3-3" transform="translate(90)"/>
  <path id="path5613" d="m-3 4 2-3 2-4m3-9-6 18v2l1 1h2l2-1 1-1 2-3m-8-8h7" transform="translate(101)"/>
  <path id="path5617" d="m0 0h-2l-2 1-1 1-1 2v2l1 2 2 1h2l2-1 1-1 1-2v-2l-1-2-2-1-1 1v2l1 2 2 1h3l2-1 1-1" transform="translate(129)"/>
  <path id="path5619" d="m-7 4 2-3 1-2-1 4-6 18m6-18 1-2 2-1h2l2 1 1 2v2l-1 2-1 1-2 1m-4-1 2 1h3l3-1 2-1 3-3" transform="translate(144)"/>
  <path id="path5621" d="m-3 7 2-1 1-1 1-2v-2l-1-1h-1l-2 1-1 2v3l1 2 2 1h2l2-1 1-1 2-3" transform="translate(156)"/>
  <path id="path5623" d="m-8 4 2-3 2-1 1 1v1l-1 4-1 3m1-3 1-2 2-3 2-1h2l1 1v2l-1 3v2l1 1h1l2-1 1-1 2-3" transform="translate(170)"/>
  <path id="path5625" d="m0 7-1 1 1 1 1-1-1-1" transform="translate(185)"/>
  <path id="path5629" d="m4-8v1l1 1h2l1-1v-2l-1-2-3-1h-4l-3 1-1 2v3l1 2 1 1 3 1h-3l-3 1-1 1-1 2v3l1 2 1 1 3 1h3l3-1 2-2 1-2" transform="translate(216)"/>
  <path id="path5631" d="m-6 4 2-4-2 6v2l1 1h2l2-1 2-2 2-3m1-3-6 18-1 2-2 1-1-1v-2l1-3 3-3 3-2 2-1 3-2 3-3" transform="translate(232)"/>
  <path id="path5633" d="m-3 7 2-1 1-1 1-2v-2l-1-1h-1l-2 1-1 2v3l1 2 2 1h2l2-1 1-1 2-3" transform="translate(245)"/>
  <path id="path5635" d="m-4 4 2-3 1-2v2l2 3 1 2v2l-2 1m-4-1 2 1h4l2-1 1-1 2-3" transform="translate(255)"/>
  <path id="path5639" d="m-6 0-2 2-1 3v2l1 2h2l2-1 2-2m2-6-2 6v2l1 1h2l2-1 2-2 1-3v-3l1 4 1 1h2l2-1" transform="translate(287)"/>
  <path id="path5641" d="m-3 7 2-1 1-1 1-2v-2l-1-1h-1l-2 1-1 2v3l1 2 2 1h2l2-1 1-1 2-3" transform="translate(303)"/>
  <path id="path5643" d="m-5 4 2-3 1-2v2h3l1 1v2l-1 3v1l1 1h1l2-1 1-1 2-3" transform="translate(314)"/>
  <path id="path5645" d="m-3 7 2-1 1-1 1-2v-2l-1-1h-1l-2 1-1 2v3l1 2 2 1h2l2-1 1-1 2-3" transform="translate(326)"/>
  <path id="path5649" d="m-3 4 2-3 3-5 1-2 1-3v-2l-1-1-2 1-1 2-1 4-1 7v6l1 1h1l2-1 1-1 2-3" transform="translate(351)"/>
  <path id="path5651" d="m0 0h-2l-2 1-1 1-1 2v2l1 2 2 1h2l2-1 1-1 1-2v-2l-1-2-2-1-1 1v2l1 2 2 1h3l2-1 1-1" transform="translate(362)"/>
  <path id="path5653" d="m0 0h-2l-2 1-1 1-1 2v2l1 2 2 1h2l2-1 1-1 1-2v-2l-1-2-2-1-1 1v2l1 2 2 1h3l2-1 1-1" transform="translate(376)"/>
  <path id="path5655" d="m-5 4 2-3 3-5 1-2 1-3v-2l-1-1-2 1-1 2-1 4-1 6-1 8 1-3 1-2 2-3 2-1h2l1 1v2l-2 1h-3l2 1 1 3 1 1h1l2-1 1-1 2-3" transform="translate(389)"/>
  <path id="path5657" d="m1-5v1h1v-1h-1m-3 9 2-4-2 6v2l1 1h1l2-1 1-1 2-3" transform="translate(400)"/>
  <path id="path5659" d="m-8 4 2-3 2-1 1 1v1l-1 4-1 3m1-3 1-2 2-3 2-1h2l1 1v2l-1 3v2l1 1h1l2-1 1-1 2-3" transform="translate(413)"/>
  <path id="path5661" d="m3 3-1-2-2-1h-2l-2 1-1 1-1 2v2l1 2 2 1h2l2-1 1-1m2-7-2 7-4 11-1 2-2 1-1-1v-2l1-3 3-3 3-2 2-1 3-2 3-3" transform="translate(429)"/>
  <path id="path5665" d="m1-5v1h1v-1h-1m-3 9 2-4-2 6v2l1 1h1l2-1 1-1 2-3" transform="translate(456)"/>
  <path id="path5667" d="m-8 4 2-3 2-1 1 1v1l-1 4-1 3m1-3 1-2 2-3 2-1h2l1 1v2l-1 3v2l1 1h1l2-1 1-1 2-3" transform="translate(469)"/>
  <path id="path5669" d="m-3 4 2-3 2-4m3-9-6 18v2l1 1h2l2-1 1-1 2-3m-8-8h7" transform="translate(482)"/>
  <path id="path5671" d="m0 0h-2l-2 1-1 1-1 2v2l1 2 2 1h2l2-1 1-1 1-2v-2l-1-2-2-1-1 1v2l1 2 2 1h3l2-1 1-1" transform="translate(494)"/>
  <path id="path5675" d="m-3 7 2-1 1-1 1-2v-2l-1-1h-1l-2 1-1 2v3l1 2 2 1h2l2-1 1-1 2-3" transform="translate(522)"/>
  <path id="path5677" d="m-6 4 2-4-2 6v2l1 1h2l2-1 2-2 2-3m1-3-6 18-1 2-2 1-1-1v-2l1-3 3-3 3-2 2-1 3-2 3-3" transform="translate(534)"/>
  <path id="path5679" d="m-3 7 2-1 1-1 1-2v-2l-1-1h-1l-2 1-1 2v3l1 2 2 1h2l2-1 1-1 2-3" transform="translate(547)"/>
  <path id="path5681" d="m-4 4 2-3 1-2v2l2 3 1 2v2l-2 1m-4-1 2 1h4l2-1 1-1 2-3" transform="translate(557)"/>
 </g>
</svg>
