<?xml version="1.0" encoding="UTF-8" standalone="no"?>
<svg id="svg2" xmlns:rdf="http://www.w3.org/1999/02/22-rdf-syntax-ns#" xmlns="http://www.w3.org/2000/svg" height="9.6567mm" width="204.56mm" version="1.1" xmlns:cc="http://creativecommons.org/ns#" xmlns:dc="http://purl.org/dc/elements/1.1/" viewBox="0 0 724.83203 34.216762">
 <g id="g5736" stroke="#000" fill="none" transform="translate(.41603 12.608)">
  <path id="path5738" d="m-5 4 2-3 3-5 1-2 1-3v-2l-1-1-2 1-1 2-1 4-1 7v6l1 1h1l2-1 2-2 1-3v-3l1 4 1 1h2l2-1" transform="translate(5)"/>
  <path id="path5740" d="m1-5v1h1v-1h-1m-3 9 2-4-2 6v2l1 1h1l2-1 1-1 2-3" transform="translate(16)"/>
  <path id="path5742" d="m3 3-1-2-2-1h-2l-2 1-1 1-1 2v2l1 2 2 1h2l2-1 1-1m2-7-2 7-4 11-1 2-2 1-1-1v-2l1-3 3-3 3-2 2-1 3-2 3-3" transform="translate(27)"/>
  <path id="path5744" d="m-2 9-1-1 1-1 1 1v1l-1 2-2 2" transform="translate(41)"/>
  <path id="path5748" d="m3 3-1-2-2-1h-2l-2 1-1 1-1 2v2l1 2 2 1h2l2-1 1-2 2-6-1 5v3l1 1h1l2-1 1-1 2-3" transform="translate(69)"/>
  <path id="path5750" d="m-8 4 2-3 2-1 1 1v1l-1 4-1 3m1-3 1-2 2-3 2-1h2l1 1v2l-1 3v2l1 1h1l2-1 1-1 2-3" transform="translate(87)"/>
  <path id="path5752" d="m3 3-1-2-2-1h-2l-2 1-1 1-1 2v2l1 2 2 1h2l2-1 1-2 6-18m-4 12-1 5v3l1 1h1l2-1 1-1 2-3" transform="translate(103)"/>
  <path id="path5756" d="m-5 4 2-3 1-2v2h3l1 1v2l-1 3v1l1 1h1l2-1 1-1 2-3" transform="translate(134)"/>
  <path id="path5758" d="m0 0h-2l-2 1-1 1-1 2v2l1 2 2 1h2l2-1 1-1 1-2v-2l-1-2-2-1-1 1v2l1 2 2 1h3l2-1 1-1" transform="translate(148)"/>
  <path id="path5760" d="m-6 4 2-4-2 6v2l1 1h2l2-1 2-2 2-3m1-3-2 6v2l1 1h1l2-1 1-1 2-3" transform="translate(162)"/>
  <path id="path5762" d="m-8 4 2-3 2-1 1 1v1l-1 4-1 3m1-3 1-2 2-3 2-1h2l1 1v2l-1 3v2l1 1h1l2-1 1-1 2-3" transform="translate(179)"/>
  <path id="path5764" d="m3 3-1-2-2-1h-2l-2 1-1 1-1 2v2l1 2 2 1h2l2-1 1-2 6-18m-4 12-1 5v3l1 1h1l2-1 1-1 2-3" transform="translate(195)"/>
  <path id="path5766" d="m-2 9-1-1 1-1 1 1v1l-1 2-2 2" transform="translate(210)"/>
  <path id="path5770" d="m3 3-1-2-2-1h-2l-2 1-1 1-1 2v2l1 2 2 1h2l2-1 1-2 2-6-1 5v3l1 1h1l2-1 1-1 2-3" transform="translate(238)"/>
  <path id="path5772" d="m-8 4 2-3 2-1 1 1v1l-1 4-1 3m1-3 1-2 2-3 2-1h2l1 1v2l-1 3v2l1 1h1l2-1 1-1 2-3" transform="translate(256)"/>
  <path id="path5774" d="m3 3-1-2-2-1h-2l-2 1-1 1-1 2v2l1 2 2 1h2l2-1 1-2 6-18m-4 12-1 5v3l1 1h1l2-1 1-1 2-3" transform="translate(272)"/>
  <path id="path5778" d="m-5 4 2-3 3-5 1-2 1-3v-2l-1-1-2 1-1 2-1 4-1 7v6l1 1h1l2-1 2-2 1-3v-3l1 4 1 1h2l2-1" transform="translate(303)"/>
  <path id="path5780" d="m-5 4 2-3 1-2v2h3l1 1v2l-1 3v1l1 1h1l2-1 1-1 2-3" transform="translate(317)"/>
  <path id="path5782" d="m0 0h-2l-2 1-1 1-1 2v2l1 2 2 1h2l2-1 1-1 1-2v-2l-1-2-2-1-1 1v2l1 2 2 1h3l2-1 1-1" transform="translate(331)"/>
  <path id="path5784" d="m-6 0-2 2-1 3v2l1 2h2l2-1 2-2m2-6-2 6v2l1 1h2l2-1 2-2 1-3v-3l1 4 1 1h2l2-1" transform="translate(348)"/>
  <path id="path5786" d="m-8 4 2-3 2-1 1 1v1l-1 4-1 3m1-3 1-2 2-3 2-1h2l1 1v2l-1 3v2l1 1h1l2-1 1-1 2-3" transform="translate(368)"/>
  <path id="path5788" d="m0 7-1 1 1 1 1-1-1-1" transform="translate(383)"/>
  <path id="path5792" d="m0-6h-2l-2-1-1-2 1-2 3-1h3l4 1h3l2-1m-5 1-2 7-2 6-2 4-2 2-2 1h-2l-2-1-1-2v-2l1-1h2l2 1" transform="translate(414)"/>
  <path id="path5794" d="m-5 4 2-3 3-5 1-2 1-3v-2l-1-1-2 1-1 2-1 4-1 6-1 8 1-3 1-2 2-3 2-1h2l1 1v2l-1 3v2l1 1h1l2-1 1-1 2-3" transform="translate(428)"/>
  <path id="path5796" d="m-3 7 2-1 1-1 1-2v-2l-1-1h-1l-2 1-1 2v3l1 2 2 1h2l2-1 1-1 2-3" transform="translate(442)"/>
  <path id="path5800" d="m-3 4 2-3 2-4m3-9-6 18v2l1 1h2l2-1 1-1 2-3m-8-8h7" transform="translate(467)"/>
  <path id="path5802" d="m-3 7 2-1 1-1 1-2v-2l-1-1h-1l-2 1-1 2v3l1 2 2 1h2l2-1 1-1 2-3" transform="translate(477)"/>
  <path id="path5804" d="m3 3-1-2-2-1h-2l-2 1-1 1-1 2v2l1 2 2 1h2l2-1 1-2 2-6-1 5v3l1 1h1l2-1 1-1 2-3" transform="translate(489)"/>
  <path id="path5806" d="m-5 4 2-3 1-2v2h3l1 1v2l-1 3v1l1 1h1l2-1 1-1 2-3" transform="translate(504)"/>
  <path id="path5808" d="m-3 7 2-1 1-1 1-2v-2l-1-1h-1l-2 1-1 2v3l1 2 2 1h2l2-1 1-1 2-3" transform="translate(516)"/>
  <path id="path5810" d="m-5 4 2-3 1-2v2h3l1 1v2l-1 3v1l1 1h1l2-1 1-1 2-3" transform="translate(527)"/>
  <path id="path5814" d="m-6 0-2 2-1 3v2l1 2h2l2-1 2-2m2-6-2 6v2l1 1h2l2-1 2-2 1-3v-3l1 4 1 1h2l2-1" transform="translate(560)"/>
  <path id="path5816" d="m3 3-1-2-2-1h-2l-2 1-1 1-1 2v2l1 2 2 1h2l2-1 1-2 2-6-1 5v3l1 1h1l2-1 1-1 2-3" transform="translate(578)"/>
  <path id="path5818" d="m-4 4 2-3 1-2v2l2 3 1 2v2l-2 1m-4-1 2 1h4l2-1 1-1 2-3" transform="translate(592)"/>
  <path id="path5822" d="m-6 4 2-4-2 6v2l1 1h2l2-1 2-2 2-3m1-3-2 6v2l1 1h1l2-1 1-1 2-3" transform="translate(621)"/>
  <path id="path5824" d="m-8 4 2-3 2-1 1 1v1l-1 4-1 3m1-3 1-2 2-3 2-1h2l1 1v2l-1 3v2l1 1h1l2-1 1-1 2-3" transform="translate(638)"/>
  <path id="path5826" d="m3 3-1-2-2-1h-2l-2 1-1 1-1 2v2l1 2 2 1h2l2-1 1-2 2-6-1 5v3l1 1h1l2-1 1-1 2-3" transform="translate(654)"/>
  <path id="path5828" d="m-6 0-2 2-1 3v2l1 2h2l2-1 2-2m2-6-2 6v2l1 1h2l2-1 2-2 1-3v-3l1 4 1 1h2l2-1" transform="translate(673)"/>
  <path id="path5830" d="m3 3-1-2-2-1h-2l-2 1-1 1-1 2v2l1 2 2 1h2l2-1 1-2 2-6-1 5v3l1 1h1l2-1 1-1 2-3" transform="translate(691)"/>
  <path id="path5832" d="m-5 4 2-3 1-2v2h3l1 1v2l-1 3v1l1 1h1l2-1 1-1 2-3" transform="translate(706)"/>
  <path id="path5834" d="m-3 7 2-1 1-1 1-2v-2l-1-1h-1l-2 1-1 2v3l1 2 2 1h2l2-1 1-1 2-3" transform="translate(718)"/>
 </g>
</svg>
