<?xml version="1.0" encoding="UTF-8" standalone="no"?>
<svg id="svg2" xmlns:rdf="http://www.w3.org/1999/02/22-rdf-syntax-ns#" xmlns="http://www.w3.org/2000/svg" viewBox="0 0 617.2071 34.216762" height="9.6567mm" width="174.19mm" version="1.1" xmlns:cc="http://creativecommons.org/ns#" xmlns:dc="http://purl.org/dc/elements/1.1/">
 <g id="g5894" stroke="#000" fill="none" transform="translate(.5 12.608)">
  <path id="path5896" d="m0 0h-2l-2 1-1 1-1 2v2l1 2 2 1h2l2-1 1-1 1-2v-2l-1-2-2-1-1 1v2l1 2 2 1h3l2-1 1-1" transform="translate(6)"/>
  <path id="path5898" d="m-3 4 4-5 2-3 1-2 1-3v-2l-1-1-2 1-1 2-2 8-3 9-3 7-1 3v2l1 1 2-1 1-3 1-9 1 1h2l2-1 1-1 2-3" transform="translate(17)"/>
  <path id="path5902" d="m-3 4 2-3 2-4m3-9-6 18v2l1 1h2l2-1 1-1 2-3m-8-8h7" transform="translate(41)"/>
  <path id="path5904" d="m-5 4 2-3 3-5 1-2 1-3v-2l-1-1-2 1-1 2-1 4-1 6-1 8 1-3 1-2 2-3 2-1h2l1 1v2l-1 3v2l1 1h1l2-1 1-1 2-3" transform="translate(52)"/>
  <path id="path5906" d="m-3 7 2-1 1-1 1-2v-2l-1-1h-1l-2 1-1 2v3l1 2 2 1h2l2-1 1-1 2-3" transform="translate(66)"/>
  <path id="path5910" d="m2 2v-1l-1-1h-2l-2 1-1 1-1 2v2l1 2 2 1h3l3-2 2-3" transform="translate(93)"/>
  <path id="path5912" d="m3 3-1-2-2-1h-2l-2 1-1 1-1 2v2l1 2 2 1h2l2-1 1-2 2-6-1 5v3l1 1h1l2-1 1-1 2-3" transform="translate(105)"/>
  <path id="path5914" d="m-6 4 2-4-2 6v2l1 1h2l2-1 2-2 2-3m1-3-2 6v2l1 1h1l2-1 1-1 2-3" transform="translate(121)"/>
  <path id="path5916" d="m-4 4 2-3 1-2v2l2 3 1 2v2l-2 1m-4-1 2 1h4l2-1 1-1 2-3" transform="translate(134)"/>
  <path id="path5918" d="m-3 7 2-1 1-1 1-2v-2l-1-1h-1l-2 1-1 2v3l1 2 2 1h2l2-1 1-1 2-3" transform="translate(145)"/>
  <path id="path5920" d="m-2 9-1-1 1-1 1 1v1l-1 2-2 2" transform="translate(156)"/>
  <path id="path5924" d="m-6 0-2 2-1 3v2l1 2h2l2-1 2-2m2-6-2 6v2l1 1h2l2-1 2-2 1-3v-3l1 4 1 1h2l2-1" transform="translate(193)"/>
  <path id="path5926" d="m-5 4 2-3 3-5 1-2 1-3v-2l-1-1-2 1-1 2-1 4-1 6-1 8 1-3 1-2 2-3 2-1h2l1 1v2l-1 3v2l1 1h1l2-1 1-1 2-3" transform="translate(210)"/>
  <path id="path5928" d="m3 3-1-2-2-1h-2l-2 1-1 1-1 2v2l1 2 2 1h2l2-1 1-2 2-6-1 5v3l1 1h1l2-1 1-1 2-3" transform="translate(226)"/>
  <path id="path5930" d="m-3 4 2-3 2-4m3-9-6 18v2l1 1h2l2-1 1-1 2-3m-8-8h7" transform="translate(239)"/>
  <path id="path5934" d="m-3 4 2-3 2-4m3-9-6 18v2l1 1h2l2-1 1-1 2-3m-8-8h7" transform="translate(264)"/>
  <path id="path5936" d="m-5 4 2-3 1-2v2h3l1 1v2l-1 3v1l1 1h1l2-1 1-1 2-3" transform="translate(275)"/>
  <path id="path5938" d="m1-5v1h1v-1h-1m-3 9 2-4-2 6v2l1 1h1l2-1 1-1 2-3" transform="translate(285)"/>
  <path id="path5940" d="m3 3-1-2-2-1h-2l-2 1-1 1-1 2v2l1 2 2 1h2l2-1 1-1m2-7-2 7-4 11-1 2-2 1-1-1v-2l1-3 3-3 3-2 2-1 3-2 3-3" transform="translate(296)"/>
  <path id="path5942" d="m3 3-1-2-2-1h-2l-2 1-1 1-1 2v2l1 2 2 1h2l2-1 1-1m2-7-2 7-4 11-1 2-2 1-1-1v-2l1-3 3-3 3-2 2-1 3-2 3-3" transform="translate(311)"/>
  <path id="path5944" d="m-3 7 2-1 1-1 1-2v-2l-1-1h-1l-2 1-1 2v3l1 2 2 1h2l2-1 1-1 2-3" transform="translate(324)"/>
  <path id="path5946" d="m-5 4 2-3 1-2v2h3l1 1v2l-1 3v1l1 1h1l2-1 1-1 2-3" transform="translate(335)"/>
  <path id="path5948" d="m-3 7 2-1 1-1 1-2v-2l-1-1h-1l-2 1-1 2v3l1 2 2 1h2l2-1 1-1 2-3" transform="translate(347)"/>
  <path id="path5950" d="m3 3-1-2-2-1h-2l-2 1-1 1-1 2v2l1 2 2 1h2l2-1 1-2 6-18m-4 12-1 5v3l1 1h1l2-1 1-1 2-3" transform="translate(359)"/>
  <path id="path5954" d="m-3 4 2-3 2-4m3-9-6 18v2l1 1h2l2-1 1-1 2-3m-8-8h7" transform="translate(388)"/>
  <path id="path5956" d="m-5 4 2-3 3-5 1-2 1-3v-2l-1-1-2 1-1 2-1 4-1 6-1 8 1-3 1-2 2-3 2-1h2l1 1v2l-1 3v2l1 1h1l2-1 1-1 2-3" transform="translate(399)"/>
  <path id="path5958" d="m-3 7 2-1 1-1 1-2v-2l-1-1h-1l-2 1-1 2v3l1 2 2 1h2l2-1 1-1 2-3" transform="translate(413)"/>
  <path id="path5960" d="m-13 4 2-3 2-1 1 1v1l-1 4-1 3m1-3 1-2 2-3 2-1h2l1 1v1l-1 4-1 3m1-3 1-2 2-3 2-1h2l1 1v2l-1 3v2l1 1h1l2-1 1-1 2-3" transform="translate(432)"/>
  <path id="path5962" d="m-2 9-1-1 1-1 1 1v1l-1 2-2 2" transform="translate(455)"/>
  <path id="path5966" d="m-5 4 2-3 3-5 1-2 1-3v-2l-1-1-2 1-1 2-1 4-1 6-1 8 1-3 1-2 2-3 2-1h2l1 1v2l-1 3v2l1 1h1l2-1 1-1 2-3" transform="translate(482)"/>
  <path id="path5968" d="m-3 7 2-1 1-1 1-2v-2l-1-1h-1l-2 1-1 2v3l1 2 2 1h2l2-1 1-1 2-3" transform="translate(496)"/>
  <path id="path5972" d="m-3 4 2-3 2-4m3-9-6 18v2l1 1h2l2-1 1-1 2-3m-8-8h7" transform="translate(521)"/>
  <path id="path5974" d="m-5 4 2-3 3-5 1-2 1-3v-2l-1-1-2 1-1 2-1 4-1 6-1 8 1-3 1-2 2-3 2-1h2l1 1v2l-1 3v2l1 1h1l2-1 1-1 2-3" transform="translate(532)"/>
  <path id="path5976" d="m0 0h-2l-2 1-1 1-1 2v2l1 2 2 1h2l2-1 1-1 1-2v-2l-1-2-2-1-1 1v2l1 2 2 1h3l2-1 1-1" transform="translate(548)"/>
  <path id="path5978" d="m-6 4 2-4-2 6v2l1 1h2l2-1 2-2 2-3m1-3-2 6v2l1 1h1l2-1 1-1 2-3" transform="translate(562)"/>
  <path id="path5980" d="m3 3-1-2-2-1h-2l-2 1-1 1-1 2v2l1 2 2 1h2l2-1 1-1m2-7-2 7-4 11-1 2-2 1-1-1v-2l1-3 3-3 3-2 2-1 3-2 3-3" transform="translate(577)"/>
  <path id="path5982" d="m-5 4 2-3 3-5 1-2 1-3v-2l-1-1-2 1-1 2-1 4-1 6-1 8 1-3 1-2 2-3 2-1h2l1 1v2l-1 3v2l1 1h1l2-1 1-1 2-3" transform="translate(591)"/>
  <path id="path5984" d="m-3 4 2-3 2-4m3-9-6 18v2l1 1h2l2-1 1-1 2-3m-8-8h7" transform="translate(604)"/>
  <path id="path5986" d="m0 7-1 1 1 1 1-1-1-1" transform="translate(615)"/>
 </g>
</svg>
