<?xml version="1.0" encoding="UTF-8" standalone="no"?>
<svg id="svg2" xmlns:rdf="http://www.w3.org/1999/02/22-rdf-syntax-ns#" xmlns="http://www.w3.org/2000/svg" height="9.6567mm" width="214.27mm" version="1.1" xmlns:cc="http://creativecommons.org/ns#" xmlns:dc="http://purl.org/dc/elements/1.1/" viewBox="0 0 759.20712 34.216762">
 <g id="g6098" stroke="#000" fill="none" transform="translate(-2.5 12.608)">
  <path id="path6100" d="m1-10 1 1v3l-1 4-1 3-1 2-2 3-2 2-2 1h-1l-1-1v-3l1-5 1-3 1-2 2-3 2-2 2-1 3-1h3l2 1 1 2v2l-1 2-1 1-2 1-3 1m-1 0h1l3 1 1 1 1 2v3l-1 2-1 1-2 1h-3l-2-1-1-2" transform="translate(12)"/>
  <path id="path6102" d="m-6 4 2-4-2 6v2l1 1h2l2-1 2-2 2-3m1-3-2 6v2l1 1h1l2-1 1-1 2-3" transform="translate(29)"/>
  <path id="path6104" d="m-3 4 2-3 2-4m3-9-6 18v2l1 1h2l2-1 1-1 2-3m-8-8h7" transform="translate(41)"/>
  <path id="path6108" d="m-5 4 2-3 3-5 1-2 1-3v-2l-1-1-2 1-1 2-1 4-1 6-1 8 1-3 1-2 2-3 2-1h2l1 1v2l-2 1h-3l2 1 1 3 1 1h1l2-1 1-1 2-3" transform="translate(68)"/>
  <path id="path6110" d="m-3 7 2-1 1-1 1-2v-2l-1-1h-1l-2 1-1 2v3l1 2 2 1h2l2-1 1-1 2-3" transform="translate(81)"/>
  <path id="path6112" d="m-7 4 2-3 1-2-1 4-6 18m6-18 1-2 2-1h2l2 1 1 2v2l-1 2-1 1-2 1m-4-1 2 1h3l3-1 2-1 3-3" transform="translate(94)"/>
  <path id="path6114" d="m-3 4 2-3 2-4m3-9-6 18v2l1 1h2l2-1 1-1 2-3m-8-8h7" transform="translate(105)"/>
  <path id="path6118" d="m-3 4 2-3 3-5 1-2 1-3v-2l-1-1-2 1-1 2-1 4-1 7v6l1 1h1l2-1 1-1 2-3" transform="translate(130)"/>
  <path id="path6120" d="m0 0h-2l-2 1-1 1-1 2v2l1 2 2 1h2l2-1 1-1 1-2v-2l-1-2-2-1-1 1v2l1 2 2 1h3l2-1 1-1" transform="translate(141)"/>
  <path id="path6122" d="m0 0h-2l-2 1-1 1-1 2v2l1 2 2 1h2l2-1 1-1 1-2v-2l-1-2-2-1-1 1v2l1 2 2 1h3l2-1 1-1" transform="translate(155)"/>
  <path id="path6124" d="m-5 4 2-3 3-5 1-2 1-3v-2l-1-1-2 1-1 2-1 4-1 6-1 8 1-3 1-2 2-3 2-1h2l1 1v2l-2 1h-3l2 1 1 3 1 1h1l2-1 1-1 2-3" transform="translate(168)"/>
  <path id="path6126" d="m1-5v1h1v-1h-1m-3 9 2-4-2 6v2l1 1h1l2-1 1-1 2-3" transform="translate(179)"/>
  <path id="path6128" d="m-8 4 2-3 2-1 1 1v1l-1 4-1 3m1-3 1-2 2-3 2-1h2l1 1v2l-1 3v2l1 1h1l2-1 1-1 2-3" transform="translate(192)"/>
  <path id="path6130" d="m3 3-1-2-2-1h-2l-2 1-1 1-1 2v2l1 2 2 1h2l2-1 1-1m2-7-2 7-4 11-1 2-2 1-1-1v-2l1-3 3-3 3-2 2-1 3-2 3-3" transform="translate(208)"/>
  <path id="path6134" d="m1-5v1h1v-1h-1m-3 9 2-4-2 6v2l1 1h1l2-1 1-1 2-3" transform="translate(235)"/>
  <path id="path6136" d="m-8 4 2-3 2-1 1 1v1l-1 4-1 3m1-3 1-2 2-3 2-1h2l1 1v2l-1 3v2l1 1h1l2-1 1-1 2-3" transform="translate(248)"/>
  <path id="path6138" d="m-3 4 2-3 2-4m3-9-6 18v2l1 1h2l2-1 1-1 2-3m-8-8h7" transform="translate(261)"/>
  <path id="path6140" d="m0 0h-2l-2 1-1 1-1 2v2l1 2 2 1h2l2-1 1-1 1-2v-2l-1-2-2-1-1 1v2l1 2 2 1h3l2-1 1-1" transform="translate(273)"/>
  <path id="path6144" d="m-3 4 2-3 2-4m3-9-6 18v2l1 1h2l2-1 1-1 2-3m-8-8h7" transform="translate(300)"/>
  <path id="path6146" d="m-5 4 2-3 3-5 1-2 1-3v-2l-1-1-2 1-1 2-1 4-1 6-1 8 1-3 1-2 2-3 2-1h2l1 1v2l-1 3v2l1 1h1l2-1 1-1 2-3" transform="translate(311)"/>
  <path id="path6148" d="m-3 7 2-1 1-1 1-2v-2l-1-1h-1l-2 1-1 2v3l1 2 2 1h2l2-1 1-1 2-3" transform="translate(325)"/>
  <path id="path6150" d="m-13 4 2-3 2-1 1 1v1l-1 4-1 3m1-3 1-2 2-3 2-1h2l1 1v1l-1 4-1 3m1-3 1-2 2-3 2-1h2l1 1v2l-1 3v2l1 1h1l2-1 1-1 2-3" transform="translate(344)"/>
  <path id="path6152" d="m-2 9-1-1 1-1 1 1v1l-1 2-2 2" transform="translate(361)"/>
  <path id="path6156" d="m-8 4 2-3 2-1 1 1v1l-1 4-1 3m1-3 1-2 2-3 2-1h2l1 1v2l-1 3v2l1 1h1l2-1 1-1 2-3" transform="translate(391)"/>
  <path id="path6158" d="m-3 7 2-1 1-1 1-2v-2l-1-1h-1l-2 1-1 2v3l1 2 2 1h2l2-1 1-1 2-3" transform="translate(405)"/>
  <path id="path6160" d="m-6 4 2-4-1 5v3l1 1h1l3-1 2-2 1-3v-3l1 4 1 1h2l2-1" transform="translate(417)"/>
  <path id="path6162" d="m-3 7 2-1 1-1 1-2v-2l-1-1h-1l-2 1-1 2v3l1 2 2 1h2l2-1 1-1 2-3" transform="translate(430)"/>
  <path id="path6164" d="m-5 4 2-3 1-2v2h3l1 1v2l-1 3v1l1 1h1l2-1 1-1 2-3" transform="translate(441)"/>
  <path id="path6168" d="m-13 4 2-3 2-1 1 1v1l-1 4-1 3m1-3 1-2 2-3 2-1h2l1 1v1l-1 4-1 3m1-3 1-2 2-3 2-1h2l1 1v2l-1 3v2l1 1h1l2-1 1-1 2-3" transform="translate(478)"/>
  <path id="path6170" d="m1-5v1h1v-1h-1m-3 9 2-4-2 6v2l1 1h1l2-1 1-1 2-3" transform="translate(492)"/>
  <path id="path6172" d="m-8 4 2-3 2-1 1 1v1l-1 4-1 3m1-3 1-2 2-3 2-1h2l1 1v2l-1 3v2l1 1h1l2-1 1-1 2-3" transform="translate(505)"/>
  <path id="path6174" d="m3 3-1-2-2-1h-2l-2 1-1 1-1 2v2l1 2 2 1h2l2-1 1-2 6-18m-4 12-1 5v3l1 1h1l2-1 1-1 2-3" transform="translate(521)"/>
  <path id="path6176" d="m1-5v1h1v-1h-1m-3 9 2-4-2 6v2l1 1h1l2-1 1-1 2-3" transform="translate(533)"/>
  <path id="path6178" d="m-8 4 2-3 2-1 1 1v1l-1 4-1 3m1-3 1-2 2-3 2-1h2l1 1v2l-1 3v2l1 1h1l2-1 1-1 2-3" transform="translate(546)"/>
  <path id="path6180" d="m3 3-1-2-2-1h-2l-2 1-1 1-1 2v2l1 2 2 1h2l2-1 1-1m2-7-2 7-4 11-1 2-2 1-1-1v-2l1-3 3-3 3-2 2-1 3-2 3-3" transform="translate(562)"/>
  <path id="path6184" d="m-3 4 2-3 2-4m3-9-6 18v2l1 1h2l2-1 1-1 2-3m-8-8h7" transform="translate(590)"/>
  <path id="path6186" d="m-5 4 2-3 3-5 1-2 1-3v-2l-1-1-2 1-1 2-1 4-1 6-1 8 1-3 1-2 2-3 2-1h2l1 1v2l-1 3v2l1 1h1l2-1 1-1 2-3" transform="translate(601)"/>
  <path id="path6188" d="m-3 7 2-1 1-1 1-2v-2l-1-1h-1l-2 1-1 2v3l1 2 2 1h2l2-1 1-1 2-3" transform="translate(615)"/>
  <path id="path6192" d="m-6 4 2-4-2 6v2l1 1h2l2-1 2-2 2-3m1-3-2 6v2l1 1h1l2-1 1-1 2-3" transform="translate(643)"/>
  <path id="path6194" d="m-8 4 2-3 2-1 1 1v1l-1 4-1 3m1-3 1-2 2-3 2-1h2l1 1v2l-1 3v2l1 1h1l2-1 1-1 2-3" transform="translate(660)"/>
  <path id="path6196" d="m-5 4 2-3 3-5 1-2 1-3v-2l-1-1-2 1-1 2-1 4-1 6-1 8 1-3 1-2 2-3 2-1h2l1 1v2l-2 1h-3l2 1 1 3 1 1h1l2-1 1-1 2-3" transform="translate(675)"/>
  <path id="path6198" d="m-8 4 2-3 2-1 1 1v1l-1 4-1 3m1-3 1-2 2-3 2-1h2l1 1v2l-1 3v2l1 1h1l2-1 1-1 2-3" transform="translate(692)"/>
  <path id="path6200" d="m0 0h-2l-2 1-1 1-1 2v2l1 2 2 1h2l2-1 1-1 1-2v-2l-1-2-2-1-1 1v2l1 2 2 1h3l2-1 1-1" transform="translate(708)"/>
  <path id="path6202" d="m-6 0-2 2-1 3v2l1 2h2l2-1 2-2m2-6-2 6v2l1 1h2l2-1 2-2 1-3v-3l1 4 1 1h2l2-1" transform="translate(725)"/>
  <path id="path6204" d="m-8 4 2-3 2-1 1 1v1l-1 4-1 3m1-3 1-2 2-3 2-1h2l1 1v2l-1 3v2l1 1h1l2-1 1-1 2-3" transform="translate(745)"/>
  <path id="path6206" d="m0 7-1 1 1 1 1-1-1-1" transform="translate(760)"/>
 </g>
</svg>
